<svg aria-hidden="true" style="position: absolute; width: 0; height: 0; overflow: hidden;" version="1.1" xmlns="http://www.w3.org/2000/svg" xmlns:xlink="http://www.w3.org/1999/xlink">
<defs>
<symbol id="icon-close" viewBox="0 0 32 32">
<path d="M31 4.489l-3.489-3.489-11.511 11.511-11.511-11.511-3.489 3.489 11.511 11.511-11.511 11.511 3.489 3.489 11.511-11.511 11.511 11.511 3.489-3.489-11.511-11.511 11.511-11.511z"></path>
</symbol>
<symbol id="icon-close_all" viewBox="0 0 32 32">
<path d="M31.429 4.16l-3.588-3.588-11.84 11.84-11.84-11.84-3.588 3.588 11.84 11.84-11.84 11.84 3.588 3.588 11.84-11.84 11.84 11.84 3.588-3.588-11.84-11.84 11.84-11.84z"></path>
</symbol>
<symbol id="icon-close_order_success" viewBox="0 0 32 32">
<path d="M32 3.721l-3.721-3.721-12.279 12.279-12.279-12.279-3.721 3.721 12.279 12.279-12.279 12.279 3.721 3.721 12.279-12.279 12.279 12.279 3.721-3.721-12.279-12.279 12.279-12.279z"></path>
</symbol>
<symbol id="icon-close_order_success_mob" viewBox="0 0 32 32">
<path d="M30.143 5.146l-3.289-3.289-10.854 10.854-10.854-10.854-3.289 3.289 10.854 10.854-10.854 10.854 3.289 3.289 10.854-10.854 10.854 10.854 3.289-3.289-10.854-10.854 10.854-10.854z"></path>
</symbol>
<symbol id="icon-discount" viewBox="0 0 32 32">
<path fill="#6d8434" style="fill: var(--color1, #6d8434)" d="M32 16c0 8.837-7.163 16-16 16s-16-7.163-16-16c0-8.837 7.163-16 16-16s16 7.163 16 16z"></path>
<path fill="#fafafa" style="fill: var(--color2, #fafafa)" d="M26.947 20.863l-0.233 0.63-4.294-1.582 0.233-0.63 0.354 0.131 0.004-0.012c-0.15-0.24-0.274-0.626-0.099-1.1 0.29-0.786 1.118-1.143 2.127-0.771s1.406 1.18 1.116 1.966c-0.175 0.474-0.508 0.693-0.802 0.768l-0.004 0.012 1.597 0.589zM23.39 18.597c-0.191 0.516 0.118 0.992 0.797 1.242 0.685 0.252 1.223 0.089 1.413-0.427 0.204-0.552-0.192-1.032-0.792-1.254s-1.214-0.113-1.418 0.439z"></path>
<path fill="#fafafa" style="fill: var(--color2, #fafafa)" d="M25.093 22.529c0.11-0.15 0.327-0.229 0.513-0.093s0.171 0.363 0.061 0.512c-0.117 0.16-0.325 0.238-0.511 0.102s-0.18-0.361-0.062-0.521zM24.845 21.936l-0.397 0.542-2.64-1.93 0.397-0.542 2.64 1.93z"></path>
<path fill="#fafafa" style="fill: var(--color2, #fafafa)" d="M21.828 23.303c-0.554 0.274-1.144 0.585-1.641-0.017-0.4-0.483-0.233-1.126 0.38-1.63 0.815-0.671 1.48-0.58 1.945-0.068l-0.504 0.415c-0.249-0.251-0.559-0.385-1.093 0.054-0.361 0.297-0.367 0.601-0.237 0.759 0.261 0.316 0.583 0.092 1.027-0.124 0.478-0.236 1.086-0.604 1.559-0.032 0.343 0.414 0.25 1.046-0.382 1.567-0.687 0.565-1.319 0.464-1.716 0.053l0.504-0.415c0.198 0.169 0.464 0.29 0.869-0.044 0.311-0.256 0.381-0.513 0.235-0.691-0.212-0.257-0.51-0.044-0.945 0.173z"></path>
<path fill="#fafafa" style="fill: var(--color2, #fafafa)" d="M18.35 25.162c0.132 0.307 0.462 0.62 1.007 0.435 0.624-0.212 0.709-0.836 0.51-1.417s-0.641-1.026-1.271-0.812c-0.545 0.185-0.617 0.629-0.524 0.982l-0.636 0.216c-0.196-0.731 0.176-1.445 0.982-1.719 0.927-0.315 1.755 0.148 2.085 1.117s-0.042 1.839-0.963 2.152c-0.806 0.274-1.509-0.062-1.828-0.738l0.636-0.216z"></path>
<path fill="#fafafa" style="fill: var(--color2, #fafafa)" d="M15.606 23.245c1.022 0.062 1.599 0.809 1.537 1.825s-0.724 1.687-1.746 1.624c-1.022-0.062-1.599-0.809-1.537-1.825s0.724-1.687 1.746-1.624zM15.573 23.795c-0.639-0.039-1.002 0.445-1.042 1.116-0.041 0.677 0.261 1.196 0.9 1.235s1.001-0.439 1.042-1.116c0.041-0.671-0.261-1.196-0.9-1.235z"></path>
<path fill="#fafafa" style="fill: var(--color2, #fafafa)" d="M10.77 25.275l-0.605-0.293 1.431-2.941 0.605 0.293-0.185 0.38 0.012 0.006c0.267-0.155 0.685-0.237 1.191 0.009 0.547 0.265 0.825 0.791 0.497 1.465l-0.988 2.032-0.61-0.296 0.904-1.859c0.193-0.397 0.149-0.731-0.265-0.932-0.466-0.226-0.903-0.090-1.116 0.348l-0.871 1.79z"></path>
<path fill="#fafafa" style="fill: var(--color2, #fafafa)" d="M7.833 22.957c-0.406-0.453-0.464-1.045 0.095-1.543l1.685-1.505 0.453 0.505-1.542 1.377c-0.329 0.294-0.416 0.62-0.108 0.963 0.346 0.386 0.802 0.425 1.165 0.101l1.485-1.326 0.448 0.5-2.44 2.178-0.448-0.5 0.315-0.281-0.009-0.010c-0.306 0.042-0.724-0.040-1.1-0.46z"></path>
<path fill="#fafafa" style="fill: var(--color2, #fafafa)" d="M6.447 19.376l0.253 0.56 1.617-0.728c0.338-0.152 0.306-0.334 0.103-0.72l0.502-0.226c0.085 0.109 0.163 0.236 0.237 0.399 0.222 0.49 0.121 0.858-0.509 1.142l-1.669 0.751 0.195 0.432-0.502 0.226-0.195-0.432-0.94 0.423-0.28-0.618 0.94-0.423-0.253-0.56 0.502-0.226z"></path>
<path fill="#fafafa" style="fill: var(--color2, #fafafa)" d="M4.494 12.648l0.146-0.656 4.467 0.994-0.146 0.656-0.369-0.082-0.003 0.012c0.181 0.217 0.355 0.584 0.245 1.077-0.182 0.818-0.954 1.283-2.004 1.049s-1.552-0.981-1.37-1.8c0.11-0.493 0.411-0.754 0.692-0.869l0.003-0.012-1.662-0.37zM8.322 14.417c0.12-0.537-0.25-0.967-0.956-1.124-0.712-0.158-1.223 0.075-1.343 0.613-0.128 0.575 0.329 0.998 0.953 1.136s1.218-0.050 1.346-0.625z"></path>
<path fill="#fafafa" style="fill: var(--color2, #fafafa)" d="M6.103 10.748c-0.089 0.163-0.293 0.271-0.495 0.161s-0.218-0.336-0.129-0.5c0.095-0.174 0.29-0.279 0.493-0.17s0.226 0.334 0.132 0.508zM6.427 11.303l0.321-0.59 2.875 1.559-0.321 0.59-2.875-1.559z"></path>
<path fill="#fafafa" style="fill: var(--color2, #fafafa)" d="M9.241 9.534c0.514-0.344 1.057-0.73 1.629-0.198 0.459 0.427 0.379 1.086-0.163 1.666-0.72 0.772-1.391 0.769-1.919 0.322l0.445-0.477c0.28 0.216 0.605 0.309 1.076-0.197 0.319-0.342 0.285-0.644 0.135-0.783-0.3-0.279-0.59-0.015-1.002 0.257-0.443 0.296-0.998 0.741-1.542 0.236-0.394-0.366-0.385-1.004 0.174-1.603 0.607-0.65 1.247-0.633 1.694-0.278l-0.445 0.477c-0.218-0.142-0.498-0.227-0.856 0.157-0.275 0.295-0.311 0.559-0.142 0.715 0.244 0.227 0.511-0.023 0.914-0.295z"></path>
<path fill="#fafafa" style="fill: var(--color2, #fafafa)" d="M12.396 7.25c-0.172-0.286-0.542-0.552-1.057-0.295-0.59 0.295-0.589 0.924-0.314 1.473s0.774 0.93 1.37 0.632c0.515-0.257 0.526-0.706 0.386-1.044l0.601-0.3c0.293 0.698 0.022 1.456-0.74 1.836-0.876 0.438-1.759 0.091-2.218-0.824s-0.208-1.828 0.662-2.262c0.762-0.38 1.504-0.143 1.911 0.483l-0.601 0.3z"></path>
<path fill="#fafafa" style="fill: var(--color2, #fafafa)" d="M15.372 8.766c-1.021 0.074-1.693-0.589-1.767-1.604s0.492-1.768 1.513-1.843c1.021-0.074 1.693 0.589 1.768 1.604s-0.492 1.768-1.513 1.843zM15.331 8.217c0.638-0.046 0.933-0.575 0.884-1.245-0.050-0.677-0.418-1.15-1.057-1.104s-0.934 0.568-0.884 1.245c0.049 0.67 0.418 1.15 1.057 1.104z"></path>
<path fill="#fafafa" style="fill: var(--color2, #fafafa)" d="M19.919 6.105l0.638 0.21-1.026 3.105-0.638-0.21 0.133-0.401-0.012-0.004c-0.244 0.189-0.647 0.326-1.182 0.149-0.577-0.191-0.923-0.675-0.688-1.386l0.709-2.145 0.644 0.213-0.649 1.963c-0.139 0.419-0.051 0.745 0.387 0.889 0.492 0.162 0.907-0.031 1.059-0.493l0.625-1.89z"></path>
<path fill="#fafafa" style="fill: var(--color2, #fafafa)" d="M23.143 8.004c0.462 0.396 0.597 0.975 0.108 1.543l-1.473 1.713-0.515-0.441 1.348-1.567c0.288-0.335 0.331-0.669-0.019-0.969-0.394-0.337-0.851-0.316-1.168 0.053l-1.298 1.509-0.51-0.437 2.132-2.48 0.51 0.437-0.275 0.32 0.010 0.008c0.298-0.082 0.723-0.055 1.15 0.311z"></path>
<path fill="#fafafa" style="fill: var(--color2, #fafafa)" d="M24.984 11.342l-0.326-0.521-1.504 0.939c-0.315 0.196-0.258 0.372-0.005 0.727l-0.467 0.291c-0.099-0.097-0.193-0.211-0.288-0.363-0.285-0.456-0.236-0.834 0.351-1.2l1.553-0.969-0.252-0.401 0.467-0.291 0.252 0.401 0.874-0.546 0.36 0.575-0.874 0.546 0.326 0.521-0.467 0.291z"></path>
<path fill="#fafafa" style="fill: var(--color2, #fafafa)" d="M17.556 14.756c-2.8 0.622-3.453 2.542-4.1 4.15l0.588 0.205 0.296-0.716c0.149 0.053 0.305 0.093 0.417 0.093 3.422 0 4.356-5.289 4.356-5.289-0.311 0.622-2.489 0.7-4.044 1.011s-2.178 1.633-2.178 2.256 0.544 1.167 0.544 1.167c1.011-2.878 4.122-2.878 4.122-2.878z"></path>
</symbol>
<symbol id="icon-food_boutique" viewBox="0 0 234 32">
<path d="M0 23.182c1.764-0.216 2.736-1.008 2.736-2.412v-14.652c0-1.404-0.972-2.232-2.736-2.412v-1.44h18.288c0.324 0 0.468 0.108 0.504 0.36 0.108 1.080 0.18 2.16 0.756 4.788h-0.9c-1.26-2.196-2.34-3.348-4.464-3.348h-3.060c-1.62 0-2.304 0.9-2.304 2.34v3.78c0 1.44 0.684 2.232 2.304 2.232h1.44c2.916 0 3.456-0.684 3.744-2.304h0.792v6.408h-0.792c-0.288-1.512-0.828-2.268-3.744-2.268h-1.44c-1.62 0-2.304 0.792-2.304 2.232v4.284c0 1.404 0.972 2.196 3.096 2.412v1.44h-11.916v-1.44z"></path>
<path d="M28.634 24.838c-4.428 0-8.928-2.664-8.928-8.496 0-5.796 4.5-8.28 8.82-8.28 4.464 0 8.928 2.664 8.928 8.496 0 5.796-4.464 8.28-8.82 8.28zM25.466 14.758c0 4.464 1.476 8.424 3.78 8.424 1.404 0 2.448-1.404 2.448-5.112 0-4.428-1.404-8.388-3.78-8.388-1.44 0-2.448 1.44-2.448 5.076z"></path>
<path d="M47.988 24.838c-4.428 0-8.928-2.664-8.928-8.496 0-5.796 4.5-8.28 8.82-8.28 4.464 0 8.928 2.664 8.928 8.496 0 5.796-4.464 8.28-8.82 8.28zM44.82 14.758c0 4.464 1.476 8.424 3.78 8.424 1.404 0 2.448-1.404 2.448-5.112 0-4.428-1.404-8.388-3.78-8.388-1.44 0-2.448 1.44-2.448 5.076z"></path>
<path d="M65.29 24.838c-3.384 0-6.876-2.772-6.876-8.1 0-5.724 3.924-8.676 7.74-8.676 3.96 0 5.004 3.096 5.004-0.54v-2.16c0-1.692-0.936-1.98-2.268-1.872v-1.404l5.868-0.972c1.224-0.18 1.8 0.36 1.8 1.44v18.396c0 1.188 0.468 1.98 1.512 1.548v0.792c-0.504 1.224-1.8 1.548-2.916 1.548-1.224 0-2.772-0.396-3.204-1.476-0.288-0.684-0.612-1.044-1.152-1.044-0.72 0-2.16 2.52-5.508 2.52zM64.21 14.866c0 3.564 1.584 7.056 3.888 7.056 1.404 0 3.060-1.008 3.060-4.032v-1.692c0-4.68-2.196-6.516-3.996-6.516-1.836 0-2.952 2.268-2.952 5.184z"></path>
<path d="M85.627 23.182c1.764-0.216 2.736-1.008 2.736-2.412v-14.616c0-1.44-0.972-2.268-2.736-2.448v-1.44h11.124c7.056 0 10.548 1.692 10.548 5.328 0 2.052-1.188 4.068-5.292 4.716 4.608 0.648 6.588 2.808 6.588 5.868 0 4.176-3.708 6.444-8.748 6.444-2.88 0-9-0.9-14.22 0v-1.44zM94.447 21.31c0 0.936 0.576 1.368 1.62 1.368h1.26c2.736 0 4.788-1.044 4.788-4.536 0-3.384-2.088-4.86-6.048-4.86-0.936 0-1.62 0.72-1.62 2.16v5.868zM94.447 9.394c0 1.44 0.684 2.16 2.304 2.16h0.936c2.484 0 3.132-1.944 3.132-3.6 0-2.52-1.368-3.924-3.708-3.924h-0.36c-1.62 0-2.304 0.756-2.304 2.196v3.168z"></path>
<path d="M119.147 24.838c-4.428 0-8.928-2.664-8.928-8.496 0-5.796 4.5-8.28 8.82-8.28 4.464 0 8.928 2.664 8.928 8.496 0 5.796-4.464 8.28-8.82 8.28zM115.979 14.758c0 4.464 1.476 8.424 3.78 8.424 1.404 0 2.448-1.404 2.448-5.112 0-4.428-1.404-8.388-3.78-8.388-1.44 0-2.448 1.44-2.448 5.076z"></path>
<path d="M135.792 24.838c-2.52 0-5.256-1.044-5.256-6.696v-5.724c0-1.656-0.936-1.944-2.268-1.908v-1.404l5.868-0.972c1.224-0.18 1.8 0.36 1.8 1.44v7.704c0 2.52 1.044 4.32 2.988 4.32 1.98 0 2.988-1.8 2.988-4.32v-4.86c0-1.656-0.936-1.944-2.268-1.908v-1.404l5.832-0.972c1.26-0.18 1.836 0.36 1.836 1.44v11.376c0 1.188 0.468 1.98 1.512 1.548v0.792c-0.504 1.224-1.8 1.548-3.024 1.548-2.592 0-3.312-1.62-3.492-2.412-0.108-0.504-0.396-0.756-0.648-0.756s-0.432 0.216-0.612 0.468c-1.008 1.368-2.412 2.7-5.256 2.7z"></path>
<path d="M157.26 24.802c-3.312 0-5.328-1.836-5.328-5.328v-7.884c0-1.26-0.288-1.512-1.116-1.512h-1.62v-1.152c2.988-0.684 4.428-2.052 5.652-4.032 0.288-0.468 0.54-0.612 1.008-0.612h0.648c0.54 0 0.864 0.324 0.864 0.864l-0.036 2.232c0 0.792 0.396 1.008 2.232 1.008h2.34v1.908l-2.34-0.144c-1.836-0.108-2.232 0.216-2.232 1.512v7.632c0 1.98 0.216 3.312 1.98 3.312 0.468 0 1.188-0.072 1.872-0.576 0.468 0.576 0.648 1.080 0.18 1.512-0.828 0.72-2.304 1.26-4.104 1.26z"></path>
<path d="M163.356 23.218c1.656-0.108 2.268-0.648 2.268-2.592v-8.244c0-1.692-0.936-1.98-2.232-1.872v-1.404l5.832-0.972c1.224-0.18 1.8 0.36 1.8 1.44v11.052c0 1.944 0.612 2.484 2.232 2.592v1.404h-9.9v-1.404zM164.76 3.598c0-1.728 1.44-3.060 3.132-3.060 1.656 0 3.060 1.332 3.060 3.060s-1.404 3.060-3.060 3.060c-1.692 0-3.132-1.332-3.132-3.060z"></path>
<path d="M184.007 30.094c2.052-0.144 2.664-0.684 2.664-2.484v-3.852c0-0.648-0.324-0.864-0.648-0.864-0.18 0-0.36 0.072-0.504 0.216-0.72 0.72-2.268 1.728-4.536 1.728-3.708 0-7.128-2.736-7.128-8.028 0-5.76 3.996-8.748 8.136-8.748 3.6 0 5.112 2.196 6.444 2.196 1.26 0 1.764-2.16 2.772-2.16 0.648 0 0.864 0.36 0.864 0.864v18.648c0 1.8 0.612 2.34 2.232 2.484v1.368h-10.296v-1.368zM179.651 14.83c0 3.564 1.512 7.092 4.032 7.092 1.368 0 2.952-1.008 2.988-5.040-0.036-5.4-2.268-7.2-4.068-7.2-1.944 0-2.952 2.268-2.952 5.148z"></path>
<path d="M201.292 24.838c-2.521 0-5.257-1.044-5.257-6.696v-5.724c0-1.656-0.936-1.944-2.268-1.908v-1.404l5.868-0.972c1.225-0.18 1.801 0.36 1.801 1.44v7.704c0 2.52 1.044 4.32 2.988 4.32 1.98 0 2.988-1.8 2.988-4.32v-4.86c0-1.656-0.936-1.944-2.268-1.908v-1.404l5.832-0.972c1.26-0.18 1.836 0.36 1.836 1.44v11.376c0 1.188 0.468 1.98 1.512 1.548v0.792c-0.504 1.224-1.8 1.548-3.024 1.548-2.592 0-3.312-1.62-3.492-2.412-0.108-0.504-0.396-0.756-0.648-0.756s-0.432 0.216-0.612 0.468c-1.008 1.368-2.412 2.7-5.256 2.7z"></path>
<path d="M224.726 24.838c-4.5 0-8.964-2.592-8.964-8.244 0-5.904 4.824-8.532 9.288-8.532 3.816 0 6.912 1.908 6.912 5.076 0 3.24-3.132 3.42-6.3 3.672l-2.808 0.216c-0.612 0.036-0.936 0.324-0.936 1.152 0 2.664 2.88 3.852 5.256 3.852 1.26 0 2.988-0.36 4.284-1.836l1.080 0.972c-0.684 1.404-3.6 3.672-7.812 3.672zM221.666 14.074c0 1.044 0.252 1.584 1.188 1.548l1.296-0.144c2.484-0.252 2.988-0.9 2.988-2.304 0-1.728-0.72-3.456-2.592-3.456-2.34 0-2.88 2.628-2.88 4.356z"></path>
</symbol>
<symbol id="icon-logo_dark" viewBox="0 0 175 32">
<path fill="#6d8434" style="fill: var(--color1, #6d8434)" d="M32 16c0 8.837-7.163 16-16 16s-16-7.163-16-16c0-8.837 7.163-16 16-16s16 7.163 16 16z"></path>
<path fill="#e8e8e2" style="fill: var(--color3, #e8e8e2)" d="M16.849 9.499c-0.265-0.402-0.62-0.736-1.038-0.975-1.149-0.659-2.629-0.543-3.995 0.222-2.536 1.421-4.197 4.092-4.197 7.254 0 4.221 3.055 7.629 7.045 8.274 0.436 0.070 0.881 0.107 1.336 0.107 1.107 0.004 2.204-0.212 3.227-0.636s1.951-1.047 2.731-1.833 1.396-1.719 1.812-2.745c0.416-1.026 0.624-2.125 0.611-3.232-0.018-1.472-0.608-3.278-1.541-4.722-0.93-1.438-2.359-2.749-4.135-2.732-0.867 0.002-1.459 0.478-1.855 1.019v-0.001zM21.92 12.657c-0.318-0.051-0.642-0.060-0.962-0.025l-0.884-1.486-1.309 0.777 0.68 1.143c-0.284 0.134-0.556 0.293-0.811 0.476-0.004-0.015-0.009-0.030-0.014-0.044-0.203-0.617-0.597-1.124-1.121-1.627l0.003-0.015c0.053-0.246 0.136-0.564 0.262-0.872 0.284-0.698 0.614-0.981 0.945-0.981h0.008c0.984-0.011 2.008 0.744 2.843 2.035 0.13 0.2 0.25 0.407 0.361 0.619l-0.001 0.001zM17.226 14.941c-0.251 0.006-0.51 0.034-0.762 0.089-0.206-0.344-0.481-0.641-0.809-0.872-0.602-0.423-1.426-0.632-2.318-0.299-0.082-0.047-0.164-0.093-0.247-0.138l2.463-2.414-1.067-1.088-2.922 2.864c-0.617-0.179-1.194-0.243-1.712-0.171 0.596-1.197 1.54-2.185 2.708-2.836 1.039-0.582 1.933-0.55 2.492-0.229 0.533 0.306 0.976 0.999 0.865 2.238l-0.034 0.383 0.288 0.255c0.626 0.554 0.887 0.912 1 1.254 0.079 0.24 0.105 0.53 0.054 0.965zM15.085 15.707c-0.651 0.545-1.087 1.309-1.341 2.135l-2.266-2.488-1.127 1.027 3.115 3.419c-0.004 0.908 0.113 1.838 0.282 2.678-1.348-0.463-2.518-1.337-3.344-2.499s-1.267-2.554-1.262-3.98c0-0.792 0.22-1.224 0.479-1.413 0.245-0.18 0.782-0.327 1.882 0.079 0.398 0.147 0.858 0.373 1.384 0.7l0.382 0.238 0.393-0.221c0.475-0.267 0.837-0.172 1.115 0.023 0.122 0.085 0.226 0.192 0.306 0.301zM16.43 22.843l5.556-6.123-1.128-1.024-2.234 2.462 0.005-0.773-1.524-0.011-0.018 2.476-1.892 2.085c-0.143-0.778-0.229-1.614-0.201-2.398 0.049-1.337 0.583-2.436 1.373-2.871 0.328-0.181 0.906-0.251 1.363-0.171l0.678 0.118 0.187-0.662c0.098-0.345 0.356-0.715 0.76-1.044 0.41-0.331 0.887-0.569 1.397-0.698 0.61-0.149 1.131-0.072 1.474 0.165 0.299 0.206 0.6 0.626 0.629 1.489v0.014l0.002 0.122c0.008 1.746-0.654 3.429-1.85 4.702s-2.833 2.039-4.577 2.141z"></path>
<path fill="#010101" style="fill: var(--color4, #010101)" d="M41.143 20.104c1.008-0.123 1.563-0.576 1.563-1.378v-8.373c0-0.802-0.555-1.275-1.563-1.378v-0.823h10.45c0.185 0 0.267 0.062 0.288 0.206 0.062 0.617 0.103 1.234 0.432 2.736h-0.514c-0.72-1.255-1.337-1.913-2.551-1.913h-1.749c-0.926 0-1.317 0.514-1.317 1.337v2.16c0 0.823 0.391 1.275 1.317 1.275h0.823c1.666 0 1.975-0.391 2.139-1.317h0.453v3.662h-0.453c-0.165-0.864-0.473-1.296-2.139-1.296h-0.823c-0.926 0-1.317 0.453-1.317 1.275v2.448c0 0.802 0.555 1.255 1.769 1.378v0.823h-6.809v-0.823z"></path>
<path fill="#010101" style="fill: var(--color4, #010101)" d="M57.505 21.050c-2.53 0-5.102-1.522-5.102-4.855 0-3.312 2.571-4.731 5.040-4.731 2.551 0 5.102 1.522 5.102 4.855 0 3.312-2.551 4.731-5.040 4.731zM55.695 15.29c0 2.551 0.843 4.814 2.16 4.814 0.802 0 1.399-0.802 1.399-2.921 0-2.53-0.802-4.793-2.16-4.793-0.823 0-1.399 0.823-1.399 2.901z"></path>
<path fill="#010101" style="fill: var(--color4, #010101)" d="M68.565 21.050c-2.53 0-5.102-1.522-5.102-4.855 0-3.312 2.571-4.731 5.040-4.731 2.551 0 5.102 1.522 5.102 4.855 0 3.312-2.551 4.731-5.040 4.731zM66.754 15.29c0 2.551 0.843 4.814 2.16 4.814 0.802 0 1.399-0.802 1.399-2.921 0-2.53-0.802-4.793-2.16-4.793-0.823 0-1.399 0.823-1.399 2.901z"></path>
<path fill="#010101" style="fill: var(--color4, #010101)" d="M78.452 21.050c-1.934 0-3.929-1.584-3.929-4.629 0-3.271 2.242-4.958 4.423-4.958 2.263 0 2.859 1.769 2.859-0.309v-1.234c0-0.967-0.535-1.131-1.296-1.070v-0.802l3.353-0.555c0.699-0.103 1.029 0.206 1.029 0.823v10.512c0 0.679 0.267 1.131 0.864 0.885v0.453c-0.288 0.699-1.029 0.885-1.666 0.885-0.699 0-1.584-0.226-1.831-0.843-0.165-0.391-0.35-0.597-0.658-0.597-0.411 0-1.234 1.44-3.147 1.44zM77.834 15.352c0 2.037 0.905 4.032 2.222 4.032 0.802 0 1.749-0.576 1.749-2.304v-0.967c0-2.674-1.255-3.723-2.283-3.723-1.049 0-1.687 1.296-1.687 2.962z"></path>
<path fill="#010101" style="fill: var(--color4, #010101)" d="M90.072 20.104c1.008-0.123 1.563-0.576 1.563-1.378v-8.352c0-0.823-0.555-1.296-1.563-1.399v-0.823h6.357c4.032 0 6.027 0.967 6.027 3.045 0 1.173-0.679 2.325-3.024 2.695 2.633 0.37 3.765 1.605 3.765 3.353 0 2.386-2.119 3.682-4.999 3.682-1.646 0-5.143-0.514-8.126 0v-0.823zM95.112 19.034c0 0.535 0.329 0.782 0.926 0.782h0.72c1.563 0 2.736-0.597 2.736-2.592 0-1.934-1.193-2.777-3.456-2.777-0.535 0-0.926 0.411-0.926 1.234v3.353zM95.112 12.225c0 0.823 0.391 1.234 1.317 1.234h0.535c1.419 0 1.79-1.111 1.79-2.057 0-1.44-0.782-2.242-2.119-2.242h-0.206c-0.926 0-1.317 0.432-1.317 1.255v1.81z"></path>
<path fill="#010101" style="fill: var(--color4, #010101)" d="M109.227 21.050c-2.53 0-5.102-1.522-5.102-4.855 0-3.312 2.571-4.731 5.040-4.731 2.551 0 5.102 1.522 5.102 4.855 0 3.312-2.551 4.731-5.040 4.731zM107.417 15.29c0 2.551 0.843 4.814 2.16 4.814 0.802 0 1.399-0.802 1.399-2.921 0-2.53-0.802-4.793-2.16-4.793-0.823 0-1.399 0.823-1.399 2.901z"></path>
<path fill="#010101" style="fill: var(--color4, #010101)" d="M118.738 21.050c-1.44 0-3.003-0.597-3.003-3.826v-3.271c0-0.946-0.535-1.111-1.296-1.090v-0.802l3.353-0.555c0.699-0.103 1.029 0.206 1.029 0.823v4.402c0 1.44 0.597 2.469 1.707 2.469 1.131 0 1.707-1.029 1.707-2.469v-2.777c0-0.946-0.535-1.111-1.296-1.090v-0.802l3.333-0.555c0.72-0.103 1.049 0.206 1.049 0.823v6.501c0 0.679 0.267 1.131 0.864 0.885v0.453c-0.288 0.699-1.029 0.885-1.728 0.885-1.481 0-1.893-0.926-1.995-1.378-0.062-0.288-0.226-0.432-0.37-0.432s-0.247 0.123-0.35 0.267c-0.576 0.782-1.378 1.543-3.003 1.543z"></path>
<path fill="#010101" style="fill: var(--color4, #010101)" d="M131.006 21.030c-1.893 0-3.045-1.049-3.045-3.045v-4.505c0-0.72-0.165-0.864-0.638-0.864h-0.926v-0.658c1.707-0.391 2.53-1.173 3.23-2.304 0.165-0.267 0.309-0.35 0.576-0.35h0.37c0.309 0 0.494 0.185 0.494 0.494l-0.021 1.275c0 0.453 0.226 0.576 1.275 0.576h1.337v1.090l-1.337-0.082c-1.049-0.062-1.275 0.123-1.275 0.864v4.361c0 1.131 0.123 1.893 1.131 1.893 0.267 0 0.679-0.041 1.070-0.329 0.267 0.329 0.37 0.617 0.103 0.864-0.473 0.411-1.317 0.72-2.345 0.72z"></path>
<path fill="#010101" style="fill: var(--color4, #010101)" d="M134.489 20.125c0.946-0.062 1.296-0.37 1.296-1.481v-4.711c0-0.967-0.535-1.131-1.275-1.070v-0.802l3.333-0.555c0.699-0.103 1.029 0.206 1.029 0.823v6.315c0 1.111 0.35 1.419 1.275 1.481v0.802h-5.657v-0.802zM135.291 8.913c0-0.987 0.823-1.749 1.79-1.749 0.946 0 1.749 0.761 1.749 1.749s-0.802 1.749-1.749 1.749c-0.967 0-1.79-0.761-1.79-1.749z"></path>
<path fill="#010101" style="fill: var(--color4, #010101)" d="M146.289 24.054c1.173-0.082 1.522-0.391 1.522-1.419v-2.201c0-0.37-0.185-0.494-0.37-0.494-0.103 0-0.206 0.041-0.288 0.123-0.411 0.411-1.296 0.987-2.592 0.987-2.119 0-4.073-1.563-4.073-4.587 0-3.291 2.283-4.999 4.649-4.999 2.057 0 2.921 1.255 3.682 1.255 0.72 0 1.008-1.234 1.584-1.234 0.37 0 0.494 0.206 0.494 0.494v10.656c0 1.029 0.35 1.337 1.275 1.419v0.782h-5.883v-0.782zM143.8 15.331c0 2.037 0.864 4.053 2.304 4.053 0.782 0 1.687-0.576 1.707-2.88-0.021-3.086-1.296-4.114-2.325-4.114-1.111 0-1.687 1.296-1.687 2.942z"></path>
<path fill="#010101" style="fill: var(--color4, #010101)" d="M156.167 21.050c-1.44 0-3.003-0.597-3.003-3.826v-3.271c0-0.946-0.535-1.111-1.296-1.090v-0.802l3.353-0.555c0.699-0.103 1.029 0.206 1.029 0.823v4.402c0 1.44 0.597 2.469 1.707 2.469 1.131 0 1.707-1.029 1.707-2.469v-2.777c0-0.946-0.535-1.111-1.296-1.090v-0.802l3.333-0.555c0.72-0.103 1.049 0.206 1.049 0.823v6.501c0 0.679 0.267 1.131 0.864 0.885v0.453c-0.288 0.699-1.029 0.885-1.728 0.885-1.481 0-1.893-0.926-1.995-1.378-0.062-0.288-0.226-0.432-0.37-0.432s-0.247 0.123-0.35 0.267c-0.576 0.782-1.378 1.543-3.003 1.543z"></path>
<path fill="#010101" style="fill: var(--color4, #010101)" d="M169.558 21.050c-2.571 0-5.122-1.481-5.122-4.711 0-3.374 2.757-4.875 5.307-4.875 2.181 0 3.95 1.090 3.95 2.901 0 1.851-1.79 1.954-3.6 2.098l-1.605 0.123c-0.35 0.021-0.535 0.185-0.535 0.658 0 1.522 1.646 2.201 3.003 2.201 0.72 0 1.707-0.206 2.448-1.049l0.617 0.555c-0.391 0.802-2.057 2.098-4.464 2.098zM167.809 14.899c0 0.597 0.144 0.905 0.679 0.885l0.741-0.082c1.419-0.144 1.707-0.514 1.707-1.317 0-0.987-0.411-1.975-1.481-1.975-1.337 0-1.646 1.502-1.646 2.489z"></path>
</symbol>
<symbol id="icon-logo_dark_big" viewBox="0 0 196 32">
<path fill="#6d8434" style="fill: var(--color1, #6d8434)" d="M32 16c0 8.837-7.163 16-16 16s-16-7.163-16-16c0-8.837 7.163-16 16-16s16 7.163 16 16z"></path>
<path fill="#e8e8e2" style="fill: var(--color3, #e8e8e2)" d="M16.93 8.89c-0.29-0.44-0.679-0.805-1.136-1.067-1.257-0.721-2.876-0.594-4.37 0.243-2.774 1.554-4.591 4.476-4.591 7.934 0 4.617 3.342 8.344 7.706 9.050 0.477 0.077 0.964 0.117 1.461 0.117 1.211 0.004 2.411-0.232 3.529-0.696s2.134-1.145 2.987-2.005 1.527-1.88 1.982-3.002c0.455-1.122 0.682-2.324 0.669-3.535-0.019-1.61-0.665-3.586-1.686-5.165-1.017-1.573-2.58-3.007-4.523-2.988-0.948 0.002-1.596 0.523-2.028 1.115v-0.001zM22.476 12.344c-0.348-0.056-0.702-0.065-1.052-0.027l-0.967-1.625-1.432 0.85 0.743 1.25c-0.311 0.146-0.608 0.321-0.887 0.521-0.005-0.016-0.010-0.032-0.015-0.048-0.223-0.675-0.652-1.229-1.226-1.78l0.003-0.017c0.058-0.269 0.149-0.617 0.287-0.954 0.311-0.763 0.672-1.073 1.033-1.073h0.009c1.076-0.012 2.197 0.814 3.109 2.226 0.142 0.219 0.273 0.445 0.395 0.677l-0.001 0.001zM17.342 14.842c-0.275 0.007-0.558 0.037-0.833 0.098-0.225-0.377-0.527-0.702-0.885-0.954-0.658-0.463-1.56-0.692-2.535-0.328-0.089-0.051-0.179-0.102-0.27-0.151l2.694-2.641-1.167-1.19-3.196 3.133c-0.675-0.196-1.306-0.266-1.872-0.188 0.652-1.309 1.685-2.39 2.962-3.102 1.137-0.637 2.114-0.602 2.726-0.251 0.583 0.334 1.068 1.093 0.946 2.448l-0.037 0.419 0.315 0.279c0.685 0.606 0.97 0.998 1.093 1.372 0.087 0.262 0.115 0.58 0.059 1.056zM15 15.679c-0.712 0.596-1.189 1.432-1.467 2.335l-2.478-2.721-1.232 1.123 3.407 3.74c-0.004 0.993 0.123 2.010 0.308 2.929-1.475-0.506-2.754-1.462-3.658-2.733s-1.386-2.793-1.38-4.353c0-0.867 0.241-1.339 0.524-1.546 0.268-0.197 0.855-0.357 2.058 0.087 0.435 0.161 0.938 0.408 1.514 0.766l0.418 0.26 0.43-0.242c0.519-0.292 0.916-0.188 1.22 0.025 0.133 0.093 0.248 0.21 0.335 0.329zM16.471 23.485l6.077-6.697-1.234-1.12-2.443 2.692 0.006-0.845-1.667-0.012-0.019 2.708-2.069 2.281c-0.157-0.851-0.25-1.765-0.22-2.622 0.053-1.462 0.637-2.664 1.502-3.14 0.358-0.198 0.991-0.275 1.491-0.187l0.742 0.129 0.204-0.724c0.107-0.377 0.389-0.782 0.831-1.142 0.448-0.362 0.97-0.623 1.528-0.763 0.668-0.163 1.237-0.078 1.612 0.18 0.328 0.225 0.657 0.685 0.688 1.628v0.015l0.003 0.133c0.008 1.91-0.716 3.751-2.023 5.143s-3.099 2.23-5.006 2.342z"></path>
<path fill="#010101" style="fill: var(--color4, #010101)" d="M40 20.788c1.176-0.144 1.824-0.672 1.824-1.608v-9.768c0-0.936-0.648-1.488-1.824-1.608v-0.96h12.192c0.216 0 0.312 0.072 0.336 0.24 0.072 0.72 0.12 1.44 0.504 3.192h-0.6c-0.84-1.464-1.56-2.232-2.976-2.232h-2.040c-1.080 0-1.536 0.6-1.536 1.56v2.52c0 0.96 0.456 1.488 1.536 1.488h0.96c1.944 0 2.304-0.456 2.496-1.536h0.528v4.272h-0.528c-0.192-1.008-0.552-1.512-2.496-1.512h-0.96c-1.080 0-1.536 0.528-1.536 1.488v2.856c0 0.936 0.648 1.464 2.064 1.608v0.96h-7.944v-0.96z"></path>
<path fill="#010101" style="fill: var(--color4, #010101)" d="M59.089 21.892c-2.952 0-5.952-1.776-5.952-5.664 0-3.864 3-5.52 5.88-5.52 2.976 0 5.952 1.776 5.952 5.664 0 3.864-2.976 5.52-5.88 5.52zM56.977 15.172c0 2.976 0.984 5.616 2.52 5.616 0.936 0 1.632-0.936 1.632-3.408 0-2.952-0.936-5.592-2.52-5.592-0.96 0-1.632 0.96-1.632 3.384z"></path>
<path fill="#010101" style="fill: var(--color4, #010101)" d="M71.992 21.892c-2.952 0-5.952-1.776-5.952-5.664 0-3.864 3-5.52 5.88-5.52 2.976 0 5.952 1.776 5.952 5.664 0 3.864-2.976 5.52-5.88 5.52zM69.88 15.172c0 2.976 0.984 5.616 2.52 5.616 0.936 0 1.632-0.936 1.632-3.408 0-2.952-0.936-5.592-2.52-5.592-0.96 0-1.632 0.96-1.632 3.384z"></path>
<path fill="#010101" style="fill: var(--color4, #010101)" d="M83.527 21.892c-2.256 0-4.584-1.848-4.584-5.4 0-3.816 2.616-5.784 5.16-5.784 2.64 0 3.336 2.064 3.336-0.36v-1.44c0-1.128-0.624-1.32-1.512-1.248v-0.936l3.912-0.648c0.816-0.12 1.2 0.24 1.2 0.96v12.264c0 0.792 0.312 1.32 1.008 1.032v0.528c-0.336 0.816-1.2 1.032-1.944 1.032-0.816 0-1.848-0.264-2.136-0.984-0.192-0.456-0.408-0.696-0.768-0.696-0.48 0-1.44 1.68-3.672 1.68zM82.807 15.244c0 2.376 1.056 4.704 2.592 4.704 0.936 0 2.040-0.672 2.040-2.688v-1.128c0-3.12-1.464-4.344-2.664-4.344-1.224 0-1.968 1.512-1.968 3.456z"></path>
<path fill="#010101" style="fill: var(--color4, #010101)" d="M97.084 20.788c1.176-0.144 1.824-0.672 1.824-1.608v-9.744c0-0.96-0.648-1.512-1.824-1.632v-0.96h7.416c4.704 0 7.032 1.128 7.032 3.552 0 1.368-0.792 2.712-3.528 3.144 3.072 0.432 4.392 1.872 4.392 3.912 0 2.784-2.472 4.296-5.832 4.296-1.92 0-6-0.6-9.48 0v-0.96zM102.964 19.54c0 0.624 0.384 0.912 1.080 0.912h0.84c1.824 0 3.192-0.696 3.192-3.024 0-2.256-1.392-3.24-4.032-3.24-0.624 0-1.080 0.48-1.080 1.44v3.912zM102.964 11.596c0 0.96 0.456 1.44 1.536 1.44h0.624c1.656 0 2.088-1.296 2.088-2.4 0-1.68-0.912-2.616-2.472-2.616h-0.24c-1.080 0-1.536 0.504-1.536 1.464v2.112z"></path>
<path fill="#010101" style="fill: var(--color4, #010101)" d="M119.431 21.892c-2.952 0-5.952-1.776-5.952-5.664 0-3.864 3-5.52 5.88-5.52 2.976 0 5.952 1.776 5.952 5.664 0 3.864-2.976 5.52-5.88 5.52zM117.319 15.172c0 2.976 0.984 5.616 2.52 5.616 0.936 0 1.632-0.936 1.632-3.408 0-2.952-0.936-5.592-2.52-5.592-0.96 0-1.632 0.96-1.632 3.384z"></path>
<path fill="#010101" style="fill: var(--color4, #010101)" d="M130.528 21.892c-1.68 0-3.504-0.696-3.504-4.464v-3.816c0-1.104-0.624-1.296-1.512-1.272v-0.936l3.912-0.648c0.816-0.12 1.2 0.24 1.2 0.96v5.136c0 1.68 0.696 2.88 1.992 2.88 1.32 0 1.992-1.2 1.992-2.88v-3.24c0-1.104-0.624-1.296-1.512-1.272v-0.936l3.888-0.648c0.84-0.12 1.224 0.24 1.224 0.96v7.584c0 0.792 0.312 1.32 1.008 1.032v0.528c-0.336 0.816-1.2 1.032-2.016 1.032-1.728 0-2.208-1.080-2.328-1.608-0.072-0.336-0.264-0.504-0.432-0.504s-0.288 0.144-0.408 0.312c-0.672 0.912-1.608 1.8-3.504 1.8z"></path>
<path fill="#010101" style="fill: var(--color4, #010101)" d="M144.84 21.868c-2.208 0-3.552-1.224-3.552-3.552v-5.256c0-0.84-0.192-1.008-0.744-1.008h-1.080v-0.768c1.992-0.456 2.952-1.368 3.768-2.688 0.192-0.312 0.36-0.408 0.672-0.408h0.432c0.36 0 0.576 0.216 0.576 0.576l-0.024 1.488c0 0.528 0.264 0.672 1.488 0.672h1.56v1.272l-1.56-0.096c-1.224-0.072-1.488 0.144-1.488 1.008v5.088c0 1.32 0.144 2.208 1.32 2.208 0.312 0 0.792-0.048 1.248-0.384 0.312 0.384 0.432 0.72 0.12 1.008-0.552 0.48-1.536 0.84-2.736 0.84z"></path>
<path fill="#010101" style="fill: var(--color4, #010101)" d="M148.904 20.812c1.104-0.072 1.512-0.432 1.512-1.728v-5.496c0-1.128-0.624-1.32-1.488-1.248v-0.936l3.888-0.648c0.816-0.12 1.2 0.24 1.2 0.96v7.368c0 1.296 0.408 1.656 1.488 1.728v0.936h-6.6v-0.936zM149.84 7.732c0-1.152 0.96-2.040 2.088-2.040 1.104 0 2.040 0.888 2.040 2.040s-0.936 2.040-2.040 2.040c-1.128 0-2.088-0.888-2.088-2.040z"></path>
<path fill="#010101" style="fill: var(--color4, #010101)" d="M162.671 25.396c1.368-0.096 1.776-0.456 1.776-1.656v-2.568c0-0.432-0.216-0.576-0.432-0.576-0.12 0-0.24 0.048-0.336 0.144-0.48 0.48-1.512 1.152-3.024 1.152-2.472 0-4.752-1.824-4.752-5.352 0-3.84 2.664-5.832 5.424-5.832 2.4 0 3.408 1.464 4.296 1.464 0.84 0 1.176-1.44 1.848-1.44 0.432 0 0.576 0.24 0.576 0.576v12.432c0 1.2 0.408 1.56 1.488 1.656v0.912h-6.864v-0.912zM159.767 15.22c0 2.376 1.008 4.728 2.688 4.728 0.912 0 1.968-0.672 1.992-3.36-0.024-3.6-1.512-4.8-2.712-4.8-1.296 0-1.968 1.512-1.968 3.432z"></path>
<path fill="#010101" style="fill: var(--color4, #010101)" d="M174.194 21.892c-1.68 0-3.504-0.696-3.504-4.464v-3.816c0-1.104-0.624-1.296-1.512-1.272v-0.936l3.912-0.648c0.816-0.12 1.2 0.24 1.2 0.96v5.136c0 1.68 0.696 2.88 1.992 2.88 1.32 0 1.992-1.2 1.992-2.88v-3.24c0-1.104-0.624-1.296-1.512-1.272v-0.936l3.888-0.648c0.84-0.12 1.224 0.24 1.224 0.96v7.584c0 0.792 0.312 1.32 1.008 1.032v0.528c-0.336 0.816-1.2 1.032-2.016 1.032-1.728 0-2.208-1.080-2.328-1.608-0.072-0.336-0.264-0.504-0.432-0.504s-0.288 0.144-0.408 0.312c-0.672 0.912-1.608 1.8-3.504 1.8z"></path>
<path fill="#010101" style="fill: var(--color4, #010101)" d="M189.818 21.892c-3 0-5.976-1.728-5.976-5.496 0-3.936 3.216-5.688 6.192-5.688 2.544 0 4.608 1.272 4.608 3.384 0 2.16-2.088 2.28-4.2 2.448l-1.872 0.144c-0.408 0.024-0.624 0.216-0.624 0.768 0 1.776 1.92 2.568 3.504 2.568 0.84 0 1.992-0.24 2.856-1.224l0.72 0.648c-0.456 0.936-2.4 2.448-5.208 2.448zM187.778 14.716c0 0.696 0.168 1.056 0.792 1.032l0.864-0.096c1.656-0.168 1.992-0.6 1.992-1.536 0-1.152-0.48-2.304-1.728-2.304-1.56 0-1.92 1.752-1.92 2.904z"></path>
</symbol>
<symbol id="icon-logo_light" viewBox="0 0 176 32">
<path fill="#e8e8e2" style="fill: var(--color3, #e8e8e2)" d="M32 16c0 8.837-7.163 16-16 16s-16-7.163-16-16c0-8.837 7.163-16 16-16s16 7.163 16 16z"></path>
<path fill="#6d8434" style="fill: var(--color1, #6d8434)" d="M16.849 9.499c-0.265-0.402-0.62-0.736-1.038-0.975-1.149-0.659-2.629-0.543-3.995 0.222-2.536 1.421-4.197 4.092-4.197 7.254 0 4.221 3.055 7.629 7.045 8.274 0.436 0.070 0.881 0.107 1.336 0.107 1.107 0.004 2.204-0.212 3.227-0.636s1.951-1.047 2.731-1.833 1.396-1.719 1.812-2.745c0.416-1.026 0.624-2.125 0.611-3.232-0.018-1.472-0.608-3.278-1.541-4.722-0.93-1.438-2.359-2.749-4.135-2.732-0.867 0.002-1.459 0.478-1.855 1.019v-0.001zM21.92 12.657c-0.318-0.051-0.642-0.060-0.962-0.025l-0.884-1.486-1.309 0.777 0.68 1.143c-0.284 0.134-0.556 0.293-0.811 0.476-0.004-0.015-0.009-0.030-0.014-0.044-0.203-0.617-0.597-1.124-1.121-1.627l0.003-0.015c0.053-0.246 0.136-0.564 0.262-0.872 0.284-0.698 0.614-0.981 0.945-0.981h0.008c0.984-0.011 2.008 0.744 2.843 2.035 0.13 0.2 0.25 0.407 0.361 0.619l-0.001 0.001zM17.226 14.941c-0.251 0.006-0.51 0.034-0.762 0.089-0.206-0.344-0.481-0.641-0.809-0.872-0.602-0.423-1.426-0.632-2.318-0.299-0.082-0.047-0.164-0.093-0.247-0.138l2.463-2.414-1.067-1.088-2.922 2.864c-0.617-0.179-1.194-0.243-1.712-0.171 0.596-1.197 1.54-2.185 2.708-2.836 1.039-0.582 1.933-0.55 2.492-0.229 0.533 0.306 0.976 0.999 0.865 2.238l-0.034 0.383 0.288 0.255c0.626 0.554 0.887 0.912 1 1.254 0.079 0.24 0.105 0.53 0.054 0.965zM15.085 15.707c-0.651 0.545-1.087 1.309-1.341 2.135l-2.266-2.488-1.127 1.027 3.115 3.419c-0.004 0.908 0.113 1.838 0.282 2.678-1.348-0.463-2.518-1.337-3.344-2.499s-1.267-2.554-1.262-3.98c0-0.792 0.22-1.224 0.479-1.413 0.245-0.18 0.782-0.327 1.882 0.079 0.398 0.147 0.858 0.373 1.384 0.7l0.382 0.238 0.393-0.221c0.475-0.267 0.837-0.172 1.115 0.023 0.122 0.085 0.226 0.192 0.306 0.301zM16.43 22.843l5.556-6.123-1.128-1.024-2.234 2.462 0.005-0.773-1.524-0.011-0.018 2.476-1.892 2.085c-0.143-0.778-0.229-1.614-0.201-2.398 0.049-1.337 0.583-2.436 1.373-2.871 0.328-0.181 0.906-0.251 1.363-0.171l0.678 0.118 0.187-0.662c0.098-0.345 0.356-0.715 0.76-1.044 0.41-0.331 0.887-0.569 1.397-0.698 0.61-0.149 1.131-0.072 1.474 0.165 0.299 0.206 0.6 0.626 0.629 1.489v0.014l0.002 0.122c0.008 1.746-0.654 3.429-1.85 4.702s-2.833 2.039-4.577 2.141z"></path>
<path fill="#e8e8e2" style="fill: var(--color3, #e8e8e2)" d="M41.76 22.034c1.008-0.123 1.563-0.576 1.563-1.378v-8.373c0-0.802-0.555-1.275-1.563-1.378v-0.823h10.45c0.185 0 0.267 0.062 0.288 0.206 0.062 0.617 0.103 1.234 0.432 2.736h-0.514c-0.72-1.255-1.337-1.913-2.551-1.913h-1.749c-0.926 0-1.317 0.514-1.317 1.337v2.16c0 0.823 0.391 1.275 1.317 1.275h0.823c1.666 0 1.975-0.391 2.139-1.317h0.453v3.662h-0.453c-0.165-0.864-0.473-1.296-2.139-1.296h-0.823c-0.926 0-1.317 0.453-1.317 1.275v2.448c0 0.802 0.555 1.255 1.769 1.378v0.823h-6.809v-0.823zM58.122 22.981c-2.53 0-5.102-1.522-5.102-4.855 0-3.312 2.571-4.731 5.040-4.731 2.551 0 5.102 1.522 5.102 4.855 0 3.312-2.551 4.731-5.040 4.731zM56.312 17.221c0 2.551 0.843 4.814 2.16 4.814 0.802 0 1.399-0.802 1.399-2.921 0-2.53-0.802-4.793-2.16-4.793-0.823 0-1.399 0.823-1.399 2.901zM69.182 22.981c-2.53 0-5.102-1.522-5.102-4.855 0-3.312 2.571-4.731 5.040-4.731 2.551 0 5.102 1.522 5.102 4.855 0 3.312-2.551 4.731-5.040 4.731zM67.371 17.221c0 2.551 0.843 4.814 2.16 4.814 0.802 0 1.399-0.802 1.399-2.921 0-2.53-0.802-4.793-2.16-4.793-0.823 0-1.399 0.823-1.399 2.901zM79.069 22.981c-1.934 0-3.929-1.584-3.929-4.629 0-3.271 2.242-4.958 4.423-4.958 2.263 0 2.859 1.769 2.859-0.309v-1.234c0-0.967-0.535-1.131-1.296-1.070v-0.802l3.353-0.555c0.699-0.103 1.029 0.206 1.029 0.823v10.512c0 0.679 0.267 1.131 0.864 0.885v0.453c-0.288 0.699-1.029 0.885-1.666 0.885-0.699 0-1.584-0.226-1.831-0.843-0.165-0.391-0.35-0.597-0.658-0.597-0.411 0-1.234 1.44-3.147 1.44zM78.452 17.282c0 2.037 0.905 4.032 2.222 4.032 0.802 0 1.749-0.576 1.749-2.304v-0.967c0-2.674-1.255-3.723-2.283-3.723-1.049 0-1.687 1.296-1.687 2.962zM90.689 22.034c1.008-0.123 1.563-0.576 1.563-1.378v-8.352c0-0.823-0.555-1.296-1.563-1.399v-0.823h6.357c4.032 0 6.027 0.967 6.027 3.045 0 1.173-0.679 2.325-3.024 2.695 2.633 0.37 3.765 1.605 3.765 3.353 0 2.386-2.119 3.682-4.999 3.682-1.646 0-5.143-0.514-8.126 0v-0.823zM95.73 20.965c0 0.535 0.329 0.782 0.926 0.782h0.72c1.563 0 2.736-0.597 2.736-2.592 0-1.934-1.193-2.777-3.456-2.777-0.535 0-0.926 0.411-0.926 1.234v3.353zM95.73 14.155c0 0.823 0.391 1.234 1.317 1.234h0.535c1.419 0 1.79-1.111 1.79-2.057 0-1.44-0.782-2.242-2.119-2.242h-0.206c-0.926 0-1.317 0.432-1.317 1.255v1.81zM109.844 22.981c-2.53 0-5.102-1.522-5.102-4.855 0-3.312 2.571-4.731 5.040-4.731 2.551 0 5.102 1.522 5.102 4.855 0 3.312-2.551 4.731-5.041 4.731zM108.034 17.221c0 2.551 0.843 4.814 2.16 4.814 0.802 0 1.399-0.802 1.399-2.921 0-2.53-0.802-4.793-2.16-4.793-0.823 0-1.399 0.823-1.399 2.901zM119.355 22.981c-1.44 0-3.003-0.597-3.003-3.826v-3.271c0-0.946-0.535-1.111-1.296-1.090v-0.802l3.353-0.555c0.699-0.103 1.029 0.206 1.029 0.823v4.402c0 1.44 0.597 2.469 1.707 2.469 1.131 0 1.707-1.029 1.707-2.469v-2.777c0-0.946-0.535-1.111-1.296-1.090v-0.802l3.333-0.555c0.72-0.103 1.049 0.206 1.049 0.823v6.501c0 0.679 0.267 1.131 0.864 0.885v0.453c-0.288 0.699-1.029 0.885-1.728 0.885-1.481 0-1.893-0.926-1.995-1.378-0.062-0.288-0.226-0.432-0.37-0.432s-0.247 0.123-0.35 0.267c-0.576 0.782-1.378 1.543-3.003 1.543zM131.623 22.96c-1.893 0-3.045-1.049-3.045-3.045v-4.505c0-0.72-0.165-0.864-0.638-0.864h-0.926v-0.658c1.707-0.391 2.53-1.173 3.23-2.304 0.165-0.267 0.309-0.35 0.576-0.35h0.37c0.309 0 0.494 0.185 0.494 0.494l-0.021 1.275c0 0.453 0.226 0.576 1.275 0.576h1.337v1.090l-1.337-0.082c-1.049-0.062-1.275 0.123-1.275 0.864v4.361c0 1.131 0.123 1.893 1.131 1.893 0.267 0 0.679-0.041 1.070-0.329 0.267 0.329 0.37 0.617 0.103 0.864-0.473 0.411-1.317 0.72-2.345 0.72zM135.106 22.055c0.946-0.062 1.296-0.37 1.296-1.481v-4.711c0-0.967-0.535-1.131-1.275-1.070v-0.802l3.333-0.555c0.699-0.103 1.029 0.206 1.029 0.823v6.315c0 1.111 0.35 1.419 1.275 1.481v0.802h-5.657v-0.802zM135.909 10.843c0-0.987 0.823-1.749 1.79-1.749 0.946 0 1.749 0.761 1.749 1.749s-0.802 1.749-1.749 1.749c-0.967 0-1.79-0.761-1.79-1.749zM146.906 25.984c1.173-0.082 1.522-0.391 1.522-1.419v-2.201c0-0.37-0.185-0.494-0.37-0.494-0.103 0-0.206 0.041-0.288 0.123-0.411 0.411-1.296 0.987-2.592 0.987-2.119 0-4.073-1.563-4.073-4.587 0-3.291 2.283-4.999 4.649-4.999 2.057 0 2.921 1.255 3.682 1.255 0.72 0 1.008-1.234 1.584-1.234 0.37 0 0.494 0.206 0.494 0.494v10.656c0 1.029 0.35 1.337 1.275 1.419v0.782h-5.883v-0.782zM144.417 17.262c0 2.037 0.864 4.053 2.304 4.053 0.782 0 1.687-0.576 1.707-2.88-0.021-3.086-1.296-4.114-2.325-4.114-1.111 0-1.687 1.296-1.687 2.942zM156.784 22.981c-1.44 0-3.003-0.597-3.003-3.826v-3.271c0-0.946-0.535-1.111-1.296-1.090v-0.802l3.353-0.555c0.699-0.103 1.029 0.206 1.029 0.823v4.402c0 1.44 0.597 2.469 1.707 2.469 1.131 0 1.707-1.029 1.707-2.469v-2.777c0-0.946-0.535-1.111-1.296-1.090v-0.802l3.333-0.555c0.72-0.103 1.049 0.206 1.049 0.823v6.501c0 0.679 0.267 1.131 0.864 0.885v0.453c-0.288 0.699-1.029 0.885-1.728 0.885-1.481 0-1.893-0.926-1.995-1.378-0.062-0.288-0.226-0.432-0.37-0.432s-0.247 0.123-0.35 0.267c-0.576 0.782-1.378 1.543-3.003 1.543zM170.175 22.981c-2.571 0-5.122-1.481-5.122-4.711 0-3.374 2.757-4.875 5.307-4.875 2.181 0 3.95 1.090 3.95 2.901 0 1.851-1.79 1.954-3.6 2.098l-1.605 0.123c-0.35 0.021-0.535 0.185-0.535 0.658 0 1.522 1.646 2.201 3.003 2.201 0.72 0 1.707-0.206 2.448-1.049l0.617 0.555c-0.391 0.802-2.057 2.098-4.464 2.098zM168.426 16.83c0 0.597 0.144 0.905 0.679 0.885l0.741-0.082c1.419-0.144 1.707-0.514 1.707-1.317 0-0.987-0.411-1.975-1.481-1.975-1.337 0-1.646 1.502-1.646 2.489z"></path>
</symbol>
<symbol id="icon-logo_light_big" viewBox="0 0 197 32">
<path fill="#e8e8e2" style="fill: var(--color3, #e8e8e2)" d="M32 16c0 8.837-7.163 16-16 16s-16-7.163-16-16c0-8.837 7.163-16 16-16s16 7.163 16 16z"></path>
<path fill="#6d8434" style="fill: var(--color1, #6d8434)" d="M16.93 8.89c-0.29-0.44-0.679-0.805-1.136-1.067-1.257-0.721-2.876-0.594-4.37 0.243-2.774 1.554-4.591 4.476-4.591 7.934 0 4.617 3.342 8.344 7.706 9.050 0.477 0.077 0.964 0.117 1.461 0.117 1.211 0.004 2.411-0.232 3.529-0.696s2.134-1.145 2.987-2.005 1.527-1.88 1.982-3.002c0.455-1.122 0.682-2.324 0.669-3.535-0.019-1.61-0.665-3.586-1.686-5.165-1.017-1.573-2.58-3.007-4.523-2.988-0.948 0.002-1.596 0.523-2.028 1.115v-0.001zM22.476 12.344c-0.348-0.056-0.702-0.065-1.052-0.027l-0.967-1.625-1.432 0.85 0.743 1.25c-0.311 0.146-0.608 0.321-0.887 0.521-0.005-0.016-0.010-0.032-0.015-0.048-0.223-0.675-0.652-1.229-1.226-1.78l0.003-0.017c0.058-0.269 0.149-0.617 0.287-0.954 0.311-0.763 0.672-1.073 1.033-1.073h0.009c1.076-0.012 2.197 0.814 3.109 2.226 0.142 0.219 0.273 0.445 0.395 0.677l-0.001 0.001zM17.342 14.842c-0.275 0.007-0.558 0.037-0.833 0.098-0.225-0.377-0.527-0.702-0.885-0.954-0.658-0.463-1.56-0.692-2.535-0.328-0.089-0.051-0.179-0.102-0.27-0.151l2.694-2.641-1.167-1.19-3.196 3.133c-0.675-0.196-1.306-0.266-1.872-0.188 0.652-1.309 1.685-2.39 2.962-3.102 1.137-0.637 2.114-0.602 2.726-0.251 0.583 0.334 1.068 1.093 0.946 2.448l-0.037 0.419 0.315 0.279c0.685 0.606 0.97 0.998 1.093 1.372 0.087 0.262 0.115 0.58 0.059 1.056zM15 15.679c-0.712 0.596-1.189 1.432-1.467 2.335l-2.478-2.721-1.232 1.123 3.407 3.74c-0.004 0.993 0.123 2.010 0.308 2.929-1.475-0.506-2.754-1.462-3.658-2.733s-1.386-2.793-1.38-4.353c0-0.867 0.241-1.339 0.524-1.546 0.268-0.197 0.855-0.357 2.058 0.087 0.435 0.161 0.938 0.408 1.514 0.766l0.418 0.26 0.43-0.242c0.519-0.292 0.916-0.188 1.22 0.025 0.133 0.093 0.248 0.21 0.335 0.329zM16.471 23.485l6.077-6.697-1.234-1.12-2.443 2.692 0.006-0.845-1.667-0.012-0.019 2.708-2.069 2.281c-0.157-0.851-0.25-1.765-0.22-2.622 0.053-1.462 0.637-2.664 1.502-3.14 0.358-0.198 0.991-0.275 1.491-0.187l0.742 0.129 0.204-0.724c0.107-0.377 0.389-0.782 0.831-1.142 0.448-0.362 0.97-0.623 1.528-0.763 0.668-0.163 1.237-0.078 1.612 0.18 0.328 0.225 0.657 0.685 0.688 1.628v0.015l0.003 0.133c0.008 1.91-0.716 3.751-2.023 5.143s-3.099 2.23-5.006 2.342z"></path>
<path fill="#e8e8e2" style="fill: var(--color3, #e8e8e2)" d="M40.72 23.040c1.176-0.144 1.824-0.672 1.824-1.608v-9.768c0-0.936-0.648-1.488-1.824-1.608v-0.96h12.192c0.216 0 0.312 0.072 0.336 0.24 0.072 0.72 0.12 1.44 0.504 3.192h-0.6c-0.84-1.464-1.56-2.232-2.976-2.232h-2.040c-1.080 0-1.536 0.6-1.536 1.56v2.52c0 0.96 0.456 1.488 1.536 1.488h0.96c1.944 0 2.304-0.456 2.496-1.536h0.528v4.272h-0.528c-0.192-1.008-0.552-1.512-2.496-1.512h-0.96c-1.080 0-1.536 0.528-1.536 1.488v2.856c0 0.936 0.648 1.464 2.064 1.608v0.96h-7.944v-0.96zM59.809 24.144c-2.952 0-5.952-1.776-5.952-5.664 0-3.864 3-5.52 5.88-5.52 2.976 0 5.952 1.776 5.952 5.664 0 3.864-2.976 5.52-5.88 5.52zM57.697 17.424c0 2.976 0.984 5.616 2.52 5.616 0.936 0 1.632-0.936 1.632-3.408 0-2.952-0.936-5.592-2.52-5.592-0.96 0-1.632 0.96-1.632 3.384zM72.712 24.144c-2.952 0-5.952-1.776-5.952-5.664 0-3.864 3-5.52 5.88-5.52 2.976 0 5.952 1.776 5.952 5.664 0 3.864-2.976 5.52-5.88 5.52zM70.6 17.424c0 2.976 0.984 5.616 2.52 5.616 0.936 0 1.632-0.936 1.632-3.408 0-2.952-0.936-5.592-2.52-5.592-0.96 0-1.632 0.96-1.632 3.384zM84.247 24.144c-2.256 0-4.584-1.848-4.584-5.4 0-3.816 2.616-5.784 5.16-5.784 2.64 0 3.336 2.064 3.336-0.36v-1.44c0-1.128-0.624-1.32-1.512-1.248v-0.936l3.912-0.648c0.816-0.12 1.2 0.24 1.2 0.96v12.264c0 0.792 0.312 1.32 1.008 1.032v0.528c-0.336 0.816-1.2 1.032-1.944 1.032-0.816 0-1.848-0.264-2.136-0.984-0.192-0.456-0.408-0.696-0.768-0.696-0.48 0-1.44 1.68-3.672 1.68zM83.527 17.496c0 2.376 1.056 4.704 2.592 4.704 0.936 0 2.040-0.672 2.040-2.688v-1.128c0-3.12-1.464-4.344-2.664-4.344-1.224 0-1.968 1.512-1.968 3.456zM97.804 23.040c1.176-0.144 1.824-0.672 1.824-1.608v-9.744c0-0.96-0.648-1.512-1.824-1.632v-0.96h7.416c4.704 0 7.032 1.128 7.032 3.552 0 1.368-0.792 2.712-3.528 3.144 3.072 0.432 4.392 1.872 4.392 3.912 0 2.784-2.472 4.296-5.832 4.296-1.92 0-6-0.6-9.48 0v-0.96zM103.684 21.792c0 0.624 0.384 0.912 1.080 0.912h0.84c1.824 0 3.192-0.696 3.192-3.024 0-2.256-1.392-3.24-4.032-3.24-0.624 0-1.080 0.48-1.080 1.44v3.912zM103.684 13.848c0 0.96 0.456 1.44 1.536 1.44h0.624c1.656 0 2.088-1.296 2.088-2.4 0-1.68-0.912-2.616-2.472-2.616h-0.24c-1.080 0-1.536 0.504-1.536 1.464v2.112zM120.151 24.144c-2.952 0-5.952-1.776-5.952-5.664 0-3.864 3-5.52 5.88-5.52 2.976 0 5.952 1.776 5.952 5.664 0 3.864-2.976 5.52-5.88 5.52zM118.039 17.424c0 2.976 0.984 5.616 2.52 5.616 0.936 0 1.632-0.936 1.632-3.408 0-2.952-0.936-5.592-2.52-5.592-0.96 0-1.632 0.96-1.632 3.384zM131.248 24.144c-1.68 0-3.504-0.696-3.504-4.464v-3.816c0-1.104-0.624-1.296-1.512-1.272v-0.936l3.912-0.648c0.816-0.12 1.2 0.24 1.2 0.96v5.136c0 1.68 0.696 2.88 1.992 2.88 1.32 0 1.992-1.2 1.992-2.88v-3.24c0-1.104-0.624-1.296-1.512-1.272v-0.936l3.888-0.648c0.84-0.12 1.224 0.24 1.224 0.96v7.584c0 0.792 0.312 1.32 1.008 1.032v0.528c-0.336 0.816-1.2 1.032-2.016 1.032-1.728 0-2.208-1.080-2.328-1.608-0.072-0.336-0.264-0.504-0.432-0.504s-0.288 0.144-0.408 0.312c-0.672 0.912-1.608 1.8-3.504 1.8zM145.56 24.12c-2.208 0-3.552-1.224-3.552-3.552v-5.256c0-0.84-0.192-1.008-0.744-1.008h-1.080v-0.768c1.992-0.456 2.952-1.368 3.768-2.688 0.192-0.312 0.36-0.408 0.672-0.408h0.432c0.36 0 0.576 0.216 0.576 0.576l-0.024 1.488c0 0.528 0.264 0.672 1.488 0.672h1.56v1.272l-1.56-0.096c-1.224-0.072-1.488 0.144-1.488 1.008v5.088c0 1.32 0.144 2.208 1.32 2.208 0.312 0 0.792-0.048 1.248-0.384 0.312 0.384 0.432 0.72 0.12 1.008-0.552 0.48-1.536 0.84-2.736 0.84zM149.624 23.064c1.104-0.072 1.512-0.432 1.512-1.728v-5.496c0-1.128-0.624-1.32-1.488-1.248v-0.936l3.888-0.648c0.816-0.12 1.2 0.24 1.2 0.96v7.368c0 1.296 0.408 1.656 1.488 1.728v0.936h-6.6v-0.936zM150.56 9.984c0-1.152 0.96-2.040 2.088-2.040 1.104 0 2.040 0.888 2.040 2.040s-0.936 2.040-2.040 2.040c-1.128 0-2.088-0.888-2.088-2.040zM163.391 27.648c1.368-0.096 1.776-0.456 1.776-1.656v-2.568c0-0.432-0.216-0.576-0.432-0.576-0.12 0-0.24 0.048-0.336 0.144-0.48 0.48-1.512 1.152-3.024 1.152-2.472 0-4.752-1.824-4.752-5.352 0-3.84 2.664-5.832 5.424-5.832 2.4 0 3.408 1.464 4.296 1.464 0.84 0 1.176-1.44 1.848-1.44 0.432 0 0.576 0.24 0.576 0.576v12.432c0 1.2 0.408 1.56 1.488 1.656v0.912h-6.864v-0.912zM160.487 17.472c0 2.376 1.008 4.728 2.688 4.728 0.912 0 1.968-0.672 1.992-3.36-0.024-3.6-1.512-4.8-2.712-4.8-1.296 0-1.968 1.512-1.968 3.432zM174.914 24.144c-1.68 0-3.504-0.696-3.504-4.464v-3.816c0-1.104-0.624-1.296-1.512-1.272v-0.936l3.912-0.648c0.816-0.12 1.2 0.24 1.2 0.96v5.136c0 1.68 0.696 2.88 1.992 2.88 1.32 0 1.992-1.2 1.992-2.88v-3.24c0-1.104-0.624-1.296-1.512-1.272v-0.936l3.888-0.648c0.84-0.12 1.224 0.24 1.224 0.96v7.584c0 0.792 0.312 1.32 1.008 1.032v0.528c-0.336 0.816-1.2 1.032-2.016 1.032-1.728 0-2.208-1.080-2.328-1.608-0.072-0.336-0.264-0.504-0.432-0.504s-0.288 0.144-0.408 0.312c-0.672 0.912-1.608 1.8-3.504 1.8zM190.538 24.144c-3 0-5.976-1.728-5.976-5.496 0-3.936 3.216-5.688 6.192-5.688 2.544 0 4.608 1.272 4.608 3.384 0 2.16-2.088 2.28-4.2 2.448l-1.872 0.144c-0.408 0.024-0.624 0.216-0.624 0.768 0 1.776 1.92 2.568 3.504 2.568 0.84 0 1.992-0.24 2.856-1.224l0.72 0.648c-0.456 0.936-2.4 2.448-5.208 2.448zM188.498 16.968c0 0.696 0.168 1.056 0.792 1.032l0.864-0.096c1.656-0.168 1.992-0.6 1.992-1.536 0-1.152-0.48-2.304-1.728-2.304-1.56 0-1.92 1.752-1.92 2.904z"></path>
</symbol>
<symbol id="icon-minus" viewBox="0 0 34 32">
<path fill="#1e1e1e" style="fill: var(--color5, #1e1e1e)" d="M0 0h33.778v32h-33.778v-32z"></path>
<path fill="#e8e8e2" style="fill: var(--color3, #e8e8e2)" d="M-924.444-1015.111h2560v2280.889h-2560v-2280.889z"></path>
<path fill="none" stroke="#010101" style="stroke: var(--color4, #010101)" stroke-linejoin="miter" stroke-linecap="butt" stroke-miterlimit="4" stroke-width="1.7778" d="M1.778-13.333h110.222c16.2 0 29.333 13.133 29.333 29.333s-13.133 29.333-29.333 29.333h-110.222c-16.2 0-29.333-13.133-29.333-29.333s13.133-29.333 29.333-29.333z"></path>
<path fill="none" stroke="#010101" style="stroke: var(--color4, #010101)" stroke-linejoin="round" stroke-linecap="round" stroke-miterlimit="4" stroke-width="2.6667" d="M7.556 16h18.667"></path>
</symbol>
<symbol id="icon-nav_button_green_right" viewBox="0 0 32 32">
<path fill="#6d8434" style="fill: var(--color1, #6d8434)" d="M16 0c8.837 0 16 7.163 16 16s-7.163 16-16 16c-8.837 0-16-7.163-16-16s7.163-16 16-16z"></path>
<path fill="none" stroke="#fafafa" style="stroke: var(--color2, #fafafa)" stroke-linejoin="round" stroke-linecap="round" stroke-miterlimit="4" stroke-width="1.2" d="M14.4 12.8l3.2 3.2-3.2 3.2"></path>
</symbol>
<symbol id="icon-nav_button_left_big" viewBox="0 0 32 32">
<path fill="#fafafa" style="fill: var(--color2, #fafafa)" d="M16 0c8.837 0 16 7.163 16 16s-7.163 16-16 16c-8.837 0-16-7.163-16-16s7.163-16 16-16z"></path>
<path fill="none" stroke="#a3a3a3" style="stroke: var(--color6, #a3a3a3)" stroke-linejoin="round" stroke-linecap="round" stroke-miterlimit="4" stroke-width="1.2" d="M17.6 19.2l-3.2-3.2 3.2-3.2"></path>
</symbol>
<symbol id="icon-nav_button_right_big" viewBox="0 0 32 32">
<path fill="#fafafa" style="fill: var(--color2, #fafafa)" d="M16 0c8.837 0 16 7.163 16 16s-7.163 16-16 16c-8.837 0-16-7.163-16-16s7.163-16 16-16z"></path>
<path fill="none" stroke="#a3a3a3" style="stroke: var(--color6, #a3a3a3)" stroke-linejoin="round" stroke-linecap="round" stroke-miterlimit="4" stroke-width="1.2" d="M14.4 12.8l3.2 3.2-3.2 3.2"></path>
</symbol>
<symbol id="icon-organic-food" viewBox="0 0 32 32">
<path fill="#fdc152" style="fill: var(--color7, #fdc152)" d="M32 16c0 8.837-7.163 16-16 16s-16-7.163-16-16c0-8.837 7.163-16 16-16s16 7.163 16 16z"></path>
<path fill="#010101" style="fill: var(--color4, #010101)" d="M25.174 17.182c0.104-0.813 0.731-1.233 1.538-1.13s1.308 0.668 1.204 1.48c-0.104 0.813-0.731 1.233-1.538 1.13s-1.308-0.668-1.204-1.481zM25.611 17.238c-0.065 0.508 0.303 0.823 0.836 0.891 0.538 0.069 0.968-0.145 1.033-0.652s-0.297-0.823-0.836-0.891c-0.533-0.068-0.968 0.145-1.033 0.652z"></path>
<path fill="#010101" style="fill: var(--color4, #010101)" d="M27.137 20.516c-0.031 0.087-0.058 0.148-0.093 0.217l-0.478-0.169 0.003-0.010c0.255-0.458 0.065-0.966-0.461-1.152l-1.26-0.446 0.179-0.507 2.466 0.873-0.179 0.507-0.463-0.164-0.003 0.010c0.263 0.24 0.403 0.518 0.289 0.841z"></path>
<path fill="#010101" style="fill: var(--color4, #010101)" d="M25.819 22.819l-0.284 0.457-2.070-1.286c-0.639-0.397-0.682-0.96-0.29-1.59 0.397-0.639 0.951-0.784 1.355-0.599l-0.286 0.461c-0.223-0.078-0.468-0.013-0.692 0.348-0.238 0.383-0.185 0.687 0.215 0.935l0.27 0.167 0.005-0.009c-0.092-0.22-0.131-0.527 0.088-0.879 0.346-0.557 0.992-0.734 1.692-0.299 0.705 0.438 0.828 1.093 0.482 1.65-0.219 0.352-0.511 0.454-0.741 0.474l-0.005 0.009 0.261 0.162zM24.45 21.143c-0.23 0.37-0.124 0.743 0.346 1.035s0.851 0.221 1.081-0.149c0.248-0.4 0.075-0.791-0.338-1.048-0.409-0.254-0.84-0.238-1.089 0.162z"></path>
<path fill="#010101" style="fill: var(--color4, #010101)" d="M23.459 24.426c0.131 0.137 0.311 0.164 0.571-0.083 0.312-0.296 0.335-0.502 0.121-0.765l0.379-0.36c0.327 0.381 0.365 0.889-0.207 1.433-0.419 0.399-0.883 0.535-1.362 0.031l-0.857-0.902c-0.127-0.134-0.224-0.176-0.362-0.016l-0.176-0.186c0.057-0.118 0.113-0.185 0.188-0.256 0.208-0.198 0.375-0.215 0.588-0.065l0.007-0.007c-0.040-0.28 0.066-0.6 0.359-0.878 0.386-0.367 0.835-0.37 1.138-0.051 0.395 0.416 0.21 0.838-0.176 1.383-0.24 0.334-0.383 0.541-0.21 0.723zM22.914 22.76c-0.323 0.307-0.394 0.678-0.101 0.986l0.272 0.286c0.021-0.104 0.131-0.294 0.277-0.504 0.256-0.377 0.309-0.604 0.125-0.797-0.166-0.174-0.361-0.172-0.573 0.029z"></path>
<path fill="#010101" style="fill: var(--color4, #010101)" d="M21.582 26.621c-0.427 0.233-0.899 0.171-1.186-0.355l-0.867-1.586 0.476-0.26 0.793 1.451c0.169 0.31 0.408 0.436 0.731 0.26 0.364-0.199 0.477-0.547 0.29-0.888l-0.764-1.397 0.472-0.258 1.255 2.296-0.472 0.258-0.162-0.297-0.009 0.005c-0.023 0.246-0.163 0.556-0.558 0.772z"></path>
<path fill="#010101" style="fill: var(--color4, #010101)" d="M19.932 27.718c0.141-0.046 0.319 0.004 0.376 0.18s-0.059 0.315-0.2 0.361c-0.151 0.049-0.322 0.002-0.379-0.173s0.053-0.319 0.204-0.368zM20.049 27.217l-0.511 0.166-0.808-2.489 0.511-0.166 0.808 2.489z"></path>
<path fill="#010101" style="fill: var(--color4, #010101)" d="M16.83 26.935c0.054 0.261 0.263 0.56 0.72 0.502 0.523-0.067 0.689-0.542 0.627-1.030s-0.338-0.907-0.866-0.839c-0.457 0.058-0.584 0.395-0.568 0.687l-0.533 0.068c-0.036-0.604 0.37-1.105 1.045-1.192 0.777-0.099 1.351 0.395 1.455 1.208s-0.327 1.436-1.099 1.534c-0.675 0.086-1.172-0.289-1.314-0.87l0.533-0.068z"></path>
<path fill="#010101" style="fill: var(--color4, #010101)" d="M11.643 27.731c0.328 0.118 0.466 0.124 0.554-0.16l0.085-0.274-0.459-0.143 0.131-0.42 0.459 0.143 0.648-2.077 0.518 0.162-0.648 2.077 0.357 0.111-0.131 0.42-0.357-0.111-0.099 0.318c-0.165 0.528-0.448 0.643-0.858 0.515-0.127-0.040-0.235-0.089-0.331-0.141l0.131-0.42z"></path>
<path fill="#010101" style="fill: var(--color4, #010101)" d="M11.604 24.070c0.717 0.396 0.878 1.133 0.484 1.846s-1.103 0.971-1.82 0.575c-0.717-0.396-0.878-1.133-0.484-1.846s1.103-0.971 1.82-0.575zM11.391 24.455c-0.448-0.247-0.877-0.022-1.136 0.449-0.262 0.475-0.222 0.954 0.226 1.201s0.874 0.026 1.136-0.449c0.26-0.471 0.222-0.954-0.226-1.201z"></path>
<path fill="#010101" style="fill: var(--color4, #010101)" d="M9.701 22.674c0.594 0.564 0.562 1.318 0.001 1.909s-1.312 0.66-1.906 0.096c-0.594-0.564-0.562-1.318-0.001-1.909s1.312-0.66 1.906-0.096zM9.398 22.994c-0.371-0.353-0.843-0.243-1.213 0.147-0.374 0.393-0.456 0.866-0.085 1.219s0.839 0.247 1.213-0.147c0.37-0.39 0.456-0.866 0.085-1.219z"></path>
<path fill="#010101" style="fill: var(--color4, #010101)" d="M4.684 22.229l-0.277-0.461 3.138-1.885 0.277 0.461-0.259 0.156 0.005 0.009c0.225 0.026 0.528 0.143 0.736 0.49 0.345 0.575 0.153 1.27-0.584 1.713s-1.441 0.286-1.786-0.289c-0.208-0.347-0.178-0.664-0.078-0.885l-0.005-0.009-1.167 0.701zM7.88 21.145c-0.227-0.377-0.678-0.423-1.174-0.125-0.5 0.301-0.668 0.718-0.441 1.095 0.243 0.404 0.74 0.397 1.179 0.134s0.678-0.7 0.436-1.104z"></path>
<path fill="#010101" style="fill: var(--color4, #010101)" d="M6.849 16.375c0.032 0.819-0.517 1.337-1.331 1.368s-1.401-0.443-1.432-1.262 0.517-1.337 1.331-1.368c0.813-0.031 1.401 0.443 1.432 1.261zM6.409 16.392c-0.020-0.512-0.434-0.762-0.971-0.741-0.542 0.021-0.931 0.302-0.911 0.814s0.429 0.762 0.971 0.741c0.537-0.021 0.931-0.302 0.911-0.814z"></path>
<path fill="#010101" style="fill: var(--color4, #010101)" d="M4.369 13.36c0.016-0.091 0.033-0.155 0.057-0.229l0.499 0.089-0.002 0.010c-0.177 0.494 0.093 0.963 0.642 1.062l1.315 0.235-0.095 0.529-2.575-0.461 0.095-0.529 0.484 0.087 0.002-0.010c-0.298-0.194-0.482-0.445-0.422-0.783z"></path>
<path fill="#010101" style="fill: var(--color4, #010101)" d="M5.287 10.885l0.206-0.497 2.252 0.933c0.695 0.288 0.828 0.836 0.544 1.522-0.288 0.695-0.811 0.928-1.239 0.811l0.208-0.501c0.232 0.041 0.464-0.063 0.626-0.455 0.172-0.416 0.071-0.707-0.364-0.888l-0.293-0.121-0.004 0.009c0.127 0.202 0.215 0.499 0.056 0.882-0.251 0.605-0.86 0.885-1.621 0.57-0.766-0.317-0.995-0.944-0.744-1.549 0.159-0.383 0.431-0.531 0.654-0.588l0.004-0.009-0.284-0.118zM6.91 12.317c0.167-0.402 0.002-0.753-0.509-0.965s-0.876-0.080-1.042 0.322c-0.18 0.435 0.054 0.793 0.503 0.979 0.445 0.184 0.868 0.099 1.048-0.336z"></path>
<path fill="#010101" style="fill: var(--color4, #010101)" d="M7.356 8.912c-0.151-0.115-0.333-0.112-0.55 0.173-0.261 0.342-0.251 0.549 0.003 0.774l-0.316 0.415c-0.384-0.324-0.502-0.82-0.024-1.447 0.351-0.46 0.786-0.669 1.34-0.247l0.99 0.754c0.147 0.112 0.249 0.138 0.36-0.041l0.204 0.155c-0.038 0.126-0.082 0.201-0.144 0.283-0.174 0.228-0.336 0.272-0.571 0.158l-0.006 0.008c0.084 0.27 0.030 0.602-0.215 0.924-0.323 0.424-0.766 0.498-1.116 0.232-0.456-0.347-0.341-0.794-0.046-1.393 0.184-0.368 0.292-0.595 0.092-0.747zM8.158 10.47c0.27-0.354 0.281-0.732-0.057-0.99l-0.314-0.239c-0.004 0.107-0.082 0.311-0.193 0.541-0.192 0.413-0.208 0.646 0.003 0.807 0.191 0.146 0.384 0.112 0.561-0.12z"></path>
<path fill="#010101" style="fill: var(--color4, #010101)" d="M8.821 6.462c0.383-0.3 0.859-0.316 1.228 0.155l1.116 1.422-0.427 0.335-1.021-1.301c-0.218-0.278-0.474-0.364-0.764-0.136-0.326 0.256-0.381 0.618-0.141 0.924l0.983 1.253-0.423 0.332-1.615-2.058 0.423-0.332 0.209 0.266 0.008-0.006c-0.018-0.246 0.069-0.575 0.424-0.853z"></path>
<path fill="#010101" style="fill: var(--color4, #010101)" d="M10.294 5.089c-0.132 0.068-0.315 0.048-0.4-0.116s0.007-0.321 0.139-0.389c0.141-0.073 0.318-0.055 0.402 0.109s0 0.323-0.141 0.396zM10.26 5.603l0.477-0.247 1.204 2.323-0.477 0.247-1.204-2.323z"></path>
<path fill="#010101" style="fill: var(--color4, #010101)" d="M13.485 5.351c-0.096-0.249-0.351-0.51-0.792-0.377-0.505 0.151-0.592 0.648-0.451 1.119s0.481 0.839 0.991 0.686c0.441-0.132 0.512-0.485 0.448-0.77l0.515-0.154c0.134 0.591-0.184 1.151-0.837 1.346-0.75 0.225-1.398-0.169-1.633-0.954s0.089-1.47 0.834-1.693c0.652-0.195 1.204 0.094 1.438 0.643l-0.515 0.154z"></path>
<path fill="#010101" style="fill: var(--color4, #010101)" d="M18.451 3.719c-0.343-0.063-0.48-0.046-0.521 0.248l-0.040 0.284 0.477 0.067-0.061 0.436-0.477-0.067-0.301 2.155-0.538-0.075 0.301-2.155-0.37-0.052 0.061-0.436 0.37 0.052 0.046-0.33c0.076-0.548 0.337-0.708 0.763-0.648 0.132 0.018 0.246 0.050 0.35 0.085l-0.061 0.436z"></path>
<path fill="#010101" style="fill: var(--color4, #010101)" d="M19.096 7.321c-0.772-0.273-1.051-0.975-0.779-1.742s0.929-1.137 1.702-0.864c0.772 0.273 1.051 0.975 0.779 1.742s-0.929 1.137-1.702 0.864zM19.243 6.906c0.483 0.171 0.869-0.122 1.048-0.628 0.181-0.512 0.063-0.977-0.419-1.148s-0.867 0.117-1.048 0.628c-0.179 0.507-0.063 0.977 0.419 1.148z"></path>
<path fill="#010101" style="fill: var(--color4, #010101)" d="M21.17 8.361c-0.678-0.46-0.77-1.209-0.313-1.883s1.187-0.865 1.865-0.405c0.678 0.46 0.77 1.209 0.313 1.883s-1.187 0.865-1.865 0.405zM21.417 7.997c0.424 0.287 0.871 0.102 1.173-0.343 0.305-0.449 0.308-0.929-0.115-1.216s-0.868-0.106-1.173 0.343c-0.302 0.445-0.308 0.929 0.115 1.216z"></path>
<path fill="#010101" style="fill: var(--color4, #010101)" d="M26.247 8.030l0.347 0.411-2.796 2.363-0.347-0.411 0.231-0.195-0.007-0.008c-0.226 0.010-0.544-0.056-0.805-0.365-0.433-0.512-0.355-1.229 0.302-1.784s1.376-0.513 1.809-0.001c0.261 0.309 0.282 0.627 0.218 0.861l0.007 0.008 1.040-0.879zM23.267 9.612c0.284 0.336 0.737 0.309 1.179-0.065 0.446-0.377 0.544-0.815 0.26-1.152-0.304-0.36-0.794-0.274-1.186 0.057s-0.558 0.8-0.253 1.16z"></path>
<path fill="#010101" style="fill: var(--color4, #010101)" d="M17.6 14.72c-2.88 0.64-3.552 2.614-4.218 4.269l0.605 0.211 0.304-0.736c0.154 0.054 0.314 0.096 0.429 0.096 3.52 0 4.48-5.44 4.48-5.44-0.32 0.64-2.56 0.72-4.16 1.040s-2.24 1.68-2.24 2.32c0 0.64 0.56 1.2 0.56 1.2 1.040-2.96 4.24-2.96 4.24-2.96z"></path>
</symbol>
<symbol id="icon-plus" viewBox="0 0 34 32">
<path stroke-linejoin="round" stroke-linecap="round" stroke-miterlimit="4" stroke-width="2.6667" d="M16.889 6.667v18.667"></path>
<path stroke-linejoin="round" stroke-linecap="round" stroke-miterlimit="4" stroke-width="2.6667" d="M7.556 16h18.667"></path>
</symbol>
<symbol id="icon-search" viewBox="0 0 32 32">
<path d="M21.833 19.333h-1.317l-0.467-0.45c1.69-1.96 2.619-4.462 2.617-7.050 0-2.143-0.635-4.237-1.826-6.019s-2.882-3.17-4.862-3.99-4.158-1.034-6.259-0.616c-2.101 0.418-4.032 1.45-5.547 2.965s-2.547 3.445-2.965 5.547c-0.418 2.101-0.203 4.28 0.616 6.259s2.208 3.671 3.99 4.862c1.782 1.19 3.876 1.826 6.019 1.826 2.683 0 5.15-0.983 7.050-2.617l0.45 0.467v1.317l8.333 8.317 2.483-2.483-8.317-8.333zM11.833 19.333c-4.15 0-7.5-3.35-7.5-7.5s3.35-7.5 7.5-7.5c4.15 0 7.5 3.35 7.5 7.5s-3.35 7.5-7.5 7.5z"></path>
</symbol>
<symbol id="icon-search_big" viewBox="0 0 32 32">
<path d="M20.667 18.667h-1.053l-0.373-0.36c1.352-1.568 2.095-3.57 2.093-5.64 0-1.714-0.508-3.39-1.46-4.815s-2.306-2.536-3.89-3.192c-1.584-0.656-3.326-0.828-5.007-0.493s-3.225 1.16-4.437 2.372c-1.212 1.212-2.037 2.756-2.372 4.437s-0.163 3.424 0.493 5.007c0.656 1.584 1.767 2.937 3.192 3.89s3.101 1.46 4.815 1.46c2.147 0 4.12-0.787 5.64-2.093l0.36 0.373v1.053l6.667 6.653 1.987-1.987-6.653-6.667zM12.667 18.667c-3.32 0-6-2.68-6-6s2.68-6 6-6c3.32 0 6 2.68 6 6s-2.68 6-6 6z"></path>
</symbol>
<symbol id="icon-social_facebook" viewBox="0 0 32 32">
<path d="M19.52 4.64c0.24 0 0.48 0 0.96 0v3.6c-0.24 0-0.72 0-1.2 0s-0.96 0-1.2 0.24c-0.24 0.24-0.24 0.48-0.24 1.040 0 0.48 0 0.8 0 1.28h2.64v3.040h-2.64v13.2h-4.080v-13.28h-2.16v-3.040h2.16v-1.040c0-1.76 0.24-3.040 0.72-3.6 0.72-1.040 2.16-1.52 4.32-1.52 0.24 0.080 0.48 0.080 0.72 0.080z"></path>
</symbol>
<symbol id="icon-social_instagram" viewBox="0 0 32 32">
<path d="M28.718 10.756c-0.016-1.074-0.215-2.14-0.596-3.145-0.667-1.716-2.024-3.073-3.743-3.737-0.994-0.373-2.044-0.573-3.108-0.596-1.368-0.061-1.801-0.078-5.273-0.078s-3.916 0-5.274 0.078c-1.062 0.023-2.113 0.223-3.106 0.596-1.719 0.664-3.078 2.021-3.743 3.737-0.374 0.992-0.576 2.041-0.596 3.101-0.061 1.367-0.080 1.8-0.080 5.265s0 3.909 0.080 5.265c0.021 1.062 0.222 2.109 0.596 3.104 0.667 1.714 2.024 3.071 3.744 3.735 0.989 0.386 2.040 0.605 3.106 0.639 1.369 0.061 1.803 0.080 5.274 0.080s3.916 0 5.274-0.080c1.062-0.021 2.112-0.221 3.108-0.595 1.719-0.666 3.076-2.022 3.743-3.737 0.374-0.994 0.574-2.041 0.596-3.104 0.061-1.365 0.080-1.798 0.080-5.265-0.003-3.466-0.003-3.906-0.082-5.264zM15.99 22.531c-3.631 0-6.572-2.936-6.572-6.561s2.941-6.561 6.572-6.561c3.628 0 6.572 2.936 6.572 6.561s-2.944 6.561-6.572 6.561zM22.824 10.696c-0.849 0-1.532-0.684-1.532-1.53s0.684-1.53 1.532-1.53c0.846 0 1.531 0.684 1.531 1.53s-0.685 1.53-1.531 1.53z"></path>
<path d="M15.992 19.976c2.211 0 4.004-1.793 4.004-4.004s-1.793-4.004-4.004-4.004c-2.211 0-4.004 1.793-4.004 4.004s1.793 4.004 4.004 4.004z"></path>
</symbol>
<symbol id="icon-social_you_tube" viewBox="0 0 32 32">
<path d="M24.24 6c-1.36-0.080-4.16-0.16-8.4-0.16h-0.56c-4.080 0-6.8 0.080-8.16 0.24-1.84 0.16-3.12 0.64-3.84 1.28-0.64 0.56-1.12 1.6-1.28 2.96-0.080 0.88-0.16 2.72-0.16 5.52v0.4c0 2.64 0.080 4.48 0.24 5.36 0.24 1.28 0.64 2.24 1.44 2.8 0.8 0.64 2.16 1.040 4.080 1.2 1.36 0.080 4.16 0.16 8.4 0.16h0.56c4.080 0 6.8-0.080 8.16-0.24 1.84-0.16 3.12-0.64 3.84-1.28 0.64-0.56 1.12-1.6 1.28-2.96 0.080-0.88 0.16-2.72 0.16-5.52v-0.4c0-2.64-0.080-4.48-0.24-5.36-0.24-1.28-0.64-2.24-1.44-2.8-0.8-0.64-2.16-1.040-4.080-1.2zM21.12 15.84l-8.8 5.28v-10.56l8.8 5.28z"></path>
</symbol>
<symbol id="icon-tdesign_cabbage" viewBox="0 0 32 32">
<path d="M17.488 4.624c-0.463-0.704-1.086-1.289-1.817-1.707-2.011-1.153-4.601-0.951-6.992 0.388-4.439 2.487-7.345 7.161-7.345 12.695 0 7.387 5.347 13.351 12.329 14.48 0.763 0.123 1.543 0.187 2.337 0.187 1.938 0.007 3.857-0.372 5.647-1.113s3.415-1.832 4.779-3.207 2.443-3.008 3.17-4.804c0.728-1.796 1.092-3.718 1.070-5.655-0.031-2.576-1.064-5.737-2.697-8.264-1.627-2.517-4.128-4.811-7.236-4.781-1.517 0.003-2.553 0.837-3.245 1.784v-0.001zM26.361 10.151c-0.557-0.090-1.123-0.104-1.684-0.044l-1.547-2.6-2.291 1.36 1.189 2c-0.498 0.234-0.973 0.513-1.42 0.833-0.008-0.026-0.016-0.052-0.024-0.077-0.356-1.080-1.044-1.967-1.961-2.848l0.005-0.027c0.092-0.431 0.239-0.987 0.459-1.527 0.497-1.221 1.075-1.716 1.653-1.716h0.015c1.721-0.019 3.515 1.303 4.975 3.561 0.227 0.351 0.437 0.712 0.632 1.083l-0.001 0.001zM18.147 14.147c-0.44 0.011-0.892 0.060-1.333 0.156-0.36-0.602-0.842-1.123-1.416-1.527-1.053-0.74-2.496-1.107-4.056-0.524-0.143-0.082-0.287-0.163-0.432-0.241l4.311-4.225-1.867-1.904-5.113 5.012c-1.080-0.313-2.089-0.425-2.996-0.3 1.043-2.094 2.696-3.824 4.74-4.963 1.819-1.019 3.383-0.963 4.361-0.401 0.933 0.535 1.708 1.748 1.513 3.916l-0.060 0.671 0.504 0.447c1.096 0.969 1.552 1.596 1.749 2.195 0.139 0.42 0.184 0.928 0.095 1.689zM14.4 15.487c-1.139 0.953-1.903 2.291-2.347 3.736l-3.965-4.353-1.972 1.797 5.451 5.984c-0.007 1.589 0.197 3.216 0.493 4.687-2.36-0.81-4.407-2.34-5.852-4.373s-2.218-4.469-2.208-6.964c0-1.387 0.385-2.143 0.839-2.473 0.428-0.315 1.368-0.572 3.293 0.139 0.696 0.257 1.501 0.652 2.423 1.225l0.669 0.416 0.688-0.387c0.831-0.467 1.465-0.301 1.952 0.040 0.213 0.149 0.396 0.336 0.536 0.527zM16.753 27.976l9.723-10.716-1.975-1.792-3.909 4.308 0.009-1.352-2.667-0.019-0.031 4.333-3.311 3.649c-0.251-1.361-0.4-2.824-0.352-4.196 0.085-2.34 1.020-4.263 2.403-5.024 0.573-0.316 1.585-0.44 2.385-0.299l1.187 0.207 0.327-1.159c0.171-0.604 0.623-1.251 1.329-1.827 0.717-0.579 1.551-0.996 2.445-1.221 1.068-0.261 1.979-0.125 2.579 0.288 0.524 0.36 1.051 1.096 1.1 2.605v0.024l0.004 0.213c0.013 3.056-1.145 6.001-3.237 8.229s-4.959 3.569-8.009 3.747z"></path>
</symbol>
<symbol id="icon-nav_arrow-small-right" viewBox="0 0 32 32">
<path stroke-linejoin="round" stroke-linecap="round" stroke-miterlimit="4" stroke-width="2" d="M13.333 10.667l5.333 5.333-5.333 5.333"></path>
</symbol>
<symbol id="icon-nav_arrow-small-left" viewBox="0 0 32 32">
<path stroke-linejoin="round" stroke-linecap="round" stroke-miterlimit="4" stroke-width="2" d="M18.667 21.333l-5.333-5.333 5.333-5.333"></path>
</symbol>
<symbol id="icon-check" viewBox="0 0 32 32">
<path stroke-linejoin="round" stroke-linecap="round" stroke-miterlimit="4" stroke-width="3.5556" d="M26.667 8l-14.667 14.667-6.667-6.667"></path>
</symbol>
<!-- <symbol id="icon-check" viewBox="0 0 32 32">
<path stroke-linejoin="round" stroke-linecap="round" stroke-miterlimit="4" stroke-width="3.5556" d="M26.667 8l-14.667 14.667-6.667-6.667"></path>
</symbol> -->
<symbol id="icon-cart-icon" viewBox="0 0 32 32">
<path d="M4.8 1.6c-0.424 0-0.831 0.169-1.131 0.469s-0.469 0.707-0.469 1.131c0 0.424 0.169 0.831 0.469 1.131s0.707 0.469 1.131 0.469h1.952l0.488 1.955c0.005 0.023 0.010 0.045 0.016 0.067l2.173 8.688-1.429 1.427c-2.016 2.016-0.589 5.462 2.262 5.462h13.737c0.424 0 0.831-0.169 1.131-0.469s0.469-0.707 0.469-1.131-0.169-0.831-0.469-1.131c-0.3-0.3-0.707-0.469-1.131-0.469h-13.738l1.6-1.6h10.537c0.297-0 0.588-0.083 0.841-0.239s0.457-0.38 0.59-0.646l4.8-9.6c0.122-0.244 0.18-0.515 0.167-0.787s-0.094-0.537-0.237-0.769c-0.143-0.232-0.343-0.423-0.581-0.556s-0.506-0.203-0.779-0.203h-17.152l-0.496-1.989c-0.087-0.346-0.286-0.653-0.568-0.873s-0.628-0.339-0.984-0.339h-3.2zM25.6 26.4c0 0.637-0.253 1.247-0.703 1.697s-1.060 0.703-1.697 0.703c-0.636 0-1.247-0.253-1.697-0.703s-0.703-1.060-0.703-1.697c0-0.636 0.253-1.247 0.703-1.697s1.060-0.703 1.697-0.703c0.637 0 1.247 0.253 1.697 0.703s0.703 1.061 0.703 1.697zM10.4 28.8c0.636 0 1.247-0.253 1.697-0.703s0.703-1.060 0.703-1.697c0-0.636-0.253-1.247-0.703-1.697s-1.061-0.703-1.697-0.703-1.247 0.253-1.697 0.703c-0.45 0.45-0.703 1.061-0.703 1.697s0.253 1.247 0.703 1.697 1.061 0.703 1.697 0.703z"></path>
</symbol>
<!--  -->
<symbol id="icon-header_shopping-cart" viewBox="0 0 32 32">
<path d="M4.8 1.6c-0.424 0-0.831 0.169-1.131 0.469s-0.469 0.707-0.469 1.131c0 0.424 0.169 0.831 0.469 1.131s0.707 0.469 1.131 0.469h1.952l0.488 1.955c0.005 0.023 0.010 0.045 0.016 0.067l2.173 8.688-1.429 1.427c-2.016 2.016-0.589 5.462 2.262 5.462h13.738c0.424 0 0.831-0.169 1.131-0.469s0.469-0.707 0.469-1.131c0-0.424-0.169-0.831-0.469-1.131s-0.707-0.469-1.131-0.469h-13.738l1.6-1.6h10.538c0.297-0 0.588-0.083 0.841-0.239s0.457-0.38 0.59-0.645l4.8-9.6c0.122-0.244 0.179-0.515 0.167-0.787s-0.094-0.537-0.237-0.769c-0.143-0.232-0.343-0.423-0.581-0.556s-0.506-0.203-0.779-0.203h-17.152l-0.496-1.989c-0.087-0.346-0.286-0.653-0.568-0.873s-0.628-0.339-0.984-0.339h-3.2zM25.6 26.4c0 0.636-0.253 1.247-0.703 1.697s-1.061 0.703-1.697 0.703c-0.636 0-1.247-0.253-1.697-0.703s-0.703-1.061-0.703-1.697c0-0.636 0.253-1.247 0.703-1.697s1.061-0.703 1.697-0.703c0.636 0 1.247 0.253 1.697 0.703s0.703 1.061 0.703 1.697zM10.4 28.8c0.637 0 1.247-0.253 1.697-0.703s0.703-1.061 0.703-1.697c0-0.636-0.253-1.247-0.703-1.697s-1.061-0.703-1.697-0.703c-0.636 0-1.247 0.253-1.697 0.703s-0.703 1.061-0.703 1.697c0 0.636 0.253 1.247 0.703 1.697s1.061 0.703 1.697 0.703z"></path>
</symbol>
<symbol id="icon-header-logo" viewBox="0 0 32 32">
<path d="M17.488 4.624c-0.463-0.704-1.086-1.289-1.817-1.707-2.011-1.153-4.601-0.951-6.992 0.388-4.439 2.487-7.345 7.161-7.345 12.695 0 7.387 5.347 13.351 12.329 14.48 0.763 0.123 1.543 0.187 2.337 0.187 1.937 0.007 3.857-0.372 5.647-1.113s3.415-1.832 4.779-3.207c1.365-1.375 2.443-3.008 3.171-4.804s1.092-3.718 1.070-5.655c-0.031-2.576-1.064-5.737-2.697-8.264-1.627-2.517-4.128-4.811-7.236-4.781-1.517 0.003-2.553 0.837-3.245 1.784v-0.001zM26.361 10.151c-0.557-0.090-1.123-0.104-1.684-0.044l-1.547-2.6-2.291 1.36 1.189 2c-0.498 0.234-0.973 0.513-1.42 0.833-0.008-0.026-0.016-0.052-0.024-0.077-0.356-1.080-1.044-1.967-1.961-2.848l0.005-0.027c0.092-0.431 0.239-0.987 0.459-1.527 0.497-1.221 1.075-1.716 1.653-1.716h0.015c1.721-0.019 3.515 1.303 4.975 3.561 0.227 0.351 0.437 0.712 0.632 1.083l-0.001 0.001zM18.146 14.147c-0.44 0.011-0.892 0.060-1.333 0.156-0.36-0.602-0.842-1.123-1.416-1.527-1.053-0.74-2.496-1.107-4.056-0.524-0.143-0.082-0.287-0.163-0.432-0.241l4.311-4.225-1.867-1.904-5.113 5.012c-1.080-0.313-2.089-0.425-2.996-0.3 1.043-2.094 2.696-3.824 4.74-4.963 1.819-1.019 3.383-0.963 4.361-0.401 0.933 0.535 1.708 1.748 1.513 3.916l-0.060 0.671 0.504 0.447c1.096 0.969 1.552 1.596 1.749 2.195 0.139 0.42 0.184 0.928 0.095 1.689zM14.399 15.487c-1.139 0.953-1.903 2.291-2.347 3.736l-3.965-4.353-1.972 1.797 5.451 5.984c-0.007 1.589 0.197 3.216 0.493 4.687-2.36-0.81-4.407-2.34-5.852-4.373s-2.218-4.469-2.208-6.964c0-1.387 0.385-2.143 0.839-2.473 0.428-0.315 1.368-0.572 3.293 0.139 0.696 0.257 1.501 0.652 2.423 1.225l0.669 0.416 0.688-0.387c0.831-0.467 1.465-0.301 1.952 0.040 0.213 0.149 0.396 0.336 0.536 0.527zM16.753 27.976l9.723-10.716-1.975-1.792-3.909 4.308 0.009-1.352-2.667-0.019-0.031 4.333-3.311 3.649c-0.251-1.361-0.4-2.824-0.352-4.196 0.085-2.34 1.020-4.263 2.403-5.024 0.573-0.316 1.585-0.44 2.385-0.299l1.187 0.207 0.327-1.159c0.171-0.604 0.623-1.251 1.329-1.827 0.717-0.579 1.551-0.996 2.445-1.221 1.068-0.261 1.979-0.125 2.579 0.288 0.524 0.36 1.051 1.096 1.1 2.605v0.024l0.004 0.213c0.013 3.056-1.145 6.001-3.237 8.229s-4.959 3.569-8.009 3.747z"></path>
</symbol>
<!--   -->

<symbol id="icon-Food-Boutique-tablet" viewBox="0 0 227 32">
<path d="M0 22.964c1.711-0.209 2.653-0.977 2.653-2.339v-14.208c0-1.361-0.943-2.164-2.653-2.339v-1.396h17.734c0.314 0 0.454 0.105 0.489 0.349 0.105 1.047 0.175 2.095 0.733 4.643h-0.873c-1.222-2.129-2.269-3.247-4.329-3.247h-2.967c-1.571 0-2.234 0.873-2.234 2.269v3.665c0 1.396 0.663 2.164 2.234 2.164h1.396c2.828 0 3.351-0.663 3.631-2.234h0.768v6.214h-0.768c-0.279-1.466-0.803-2.199-3.631-2.199h-1.396c-1.571 0-2.234 0.768-2.234 2.164v4.154c0 1.361 0.943 2.129 3.002 2.339v1.396h-11.555v-1.396z"></path>
<path d="M27.766 24.57c-4.294 0-8.657-2.583-8.657-8.239 0-5.62 4.364-8.029 8.553-8.029 4.329 0 8.657 2.583 8.657 8.239 0 5.62-4.329 8.029-8.553 8.029zM24.694 14.796c0 4.329 1.431 8.169 3.665 8.169 1.361 0 2.374-1.361 2.374-4.957 0-4.294-1.361-8.134-3.665-8.134-1.396 0-2.374 1.396-2.374 4.922z"></path>
<path d="M46.534 24.57c-4.294 0-8.657-2.583-8.657-8.239 0-5.62 4.364-8.029 8.553-8.029 4.329 0 8.657 2.583 8.657 8.239 0 5.62-4.329 8.029-8.553 8.029zM43.462 14.796c0 4.329 1.431 8.169 3.665 8.169 1.361 0 2.374-1.361 2.374-4.957 0-4.294-1.361-8.134-3.665-8.134-1.396 0-2.374 1.396-2.374 4.922z"></path>
<path d="M63.312 24.57c-3.281 0-6.668-2.688-6.668-7.855 0-5.551 3.805-8.413 7.505-8.413 3.84 0 4.852 3.002 4.852-0.524v-2.095c0-1.641-0.908-1.92-2.199-1.815v-1.361l5.69-0.943c1.187-0.175 1.745 0.349 1.745 1.396v17.839c0 1.152 0.454 1.92 1.466 1.501v0.768c-0.489 1.187-1.745 1.501-2.828 1.501-1.187 0-2.688-0.384-3.107-1.431-0.279-0.663-0.593-1.012-1.117-1.012-0.698 0-2.095 2.444-5.341 2.444zM62.264 14.9c0 3.456 1.536 6.842 3.77 6.842 1.361 0 2.967-0.977 2.967-3.91v-1.641c0-4.538-2.129-6.319-3.875-6.319-1.78 0-2.863 2.199-2.863 5.027z"></path>
<path d="M83.032 22.964c1.711-0.209 2.653-0.977 2.653-2.339v-14.173c0-1.396-0.943-2.199-2.653-2.374v-1.396h10.787c6.842 0 10.228 1.641 10.228 5.167 0 1.99-1.152 3.945-5.132 4.573 4.468 0.628 6.388 2.723 6.388 5.69 0 4.049-3.596 6.249-8.483 6.249-2.793 0-8.727-0.873-13.789 0v-1.396zM91.585 21.149c0 0.908 0.559 1.327 1.571 1.327h1.222c2.653 0 4.643-1.012 4.643-4.399 0-3.281-2.025-4.713-5.865-4.713-0.908 0-1.571 0.698-1.571 2.095v5.69zM91.585 9.594c0 1.396 0.663 2.095 2.234 2.095h0.908c2.409 0 3.037-1.885 3.037-3.491 0-2.444-1.327-3.805-3.596-3.805h-0.349c-1.571 0-2.234 0.733-2.234 2.129v3.072z"></path>
<path d="M115.537 24.57c-4.294 0-8.657-2.583-8.657-8.239 0-5.62 4.364-8.029 8.553-8.029 4.329 0 8.657 2.583 8.657 8.239 0 5.62-4.329 8.029-8.553 8.029zM112.465 14.796c0 4.329 1.431 8.169 3.665 8.169 1.361 0 2.374-1.361 2.374-4.957 0-4.294-1.361-8.134-3.665-8.134-1.396 0-2.374 1.396-2.374 4.922z"></path>
<path d="M131.677 24.57c-2.444 0-5.097-1.012-5.097-6.493v-5.551c0-1.606-0.908-1.885-2.199-1.85v-1.361l5.69-0.943c1.187-0.175 1.745 0.349 1.745 1.396v7.471c0 2.444 1.012 4.189 2.897 4.189 1.92 0 2.897-1.745 2.897-4.189v-4.713c0-1.606-0.908-1.885-2.199-1.85v-1.361l5.655-0.943c1.222-0.175 1.78 0.349 1.78 1.396v11.031c0 1.152 0.454 1.92 1.466 1.501v0.768c-0.489 1.187-1.745 1.501-2.932 1.501-2.513 0-3.212-1.571-3.386-2.339-0.105-0.489-0.384-0.733-0.628-0.733s-0.419 0.209-0.593 0.454c-0.977 1.327-2.339 2.618-5.097 2.618z"></path>
<path d="M152.495 24.535c-3.212 0-5.167-1.78-5.167-5.167v-7.645c0-1.222-0.279-1.466-1.082-1.466h-1.571v-1.117c2.897-0.663 4.294-1.99 5.481-3.91 0.279-0.454 0.524-0.593 0.977-0.593h0.628c0.524 0 0.838 0.314 0.838 0.838l-0.035 2.164c0 0.768 0.384 0.977 2.164 0.977h2.269v1.85l-2.269-0.14c-1.78-0.105-2.164 0.209-2.164 1.466v7.401c0 1.92 0.209 3.212 1.92 3.212 0.454 0 1.152-0.070 1.815-0.559 0.454 0.559 0.628 1.047 0.175 1.466-0.803 0.698-2.234 1.222-3.98 1.222z"></path>
<path d="M158.406 22.999c1.606-0.105 2.199-0.628 2.199-2.513v-7.994c0-1.641-0.908-1.92-2.164-1.815v-1.361l5.655-0.943c1.187-0.175 1.745 0.349 1.745 1.396v10.717c0 1.885 0.593 2.409 2.164 2.513v1.361h-9.6v-1.361zM159.767 3.974c0-1.676 1.396-2.967 3.037-2.967 1.606 0 2.967 1.292 2.967 2.967s-1.361 2.967-2.967 2.967c-1.641 0-3.037-1.292-3.037-2.967z"></path>
<path d="M178.431 29.667c1.99-0.14 2.583-0.663 2.583-2.409v-3.735c0-0.628-0.314-0.838-0.628-0.838-0.175 0-0.349 0.070-0.489 0.209-0.698 0.698-2.199 1.676-4.399 1.676-3.596 0-6.912-2.653-6.912-7.785 0-5.585 3.875-8.483 7.889-8.483 3.491 0 4.957 2.129 6.249 2.129 1.222 0 1.711-2.095 2.688-2.095 0.628 0 0.838 0.349 0.838 0.838v18.083c0 1.745 0.593 2.269 2.164 2.409v1.327h-9.984v-1.327zM174.207 14.865c0 3.456 1.466 6.877 3.91 6.877 1.327 0 2.863-0.977 2.897-4.887-0.035-5.236-2.199-6.982-3.945-6.982-1.885 0-2.863 2.199-2.863 4.992z"></path>
<path d="M195.191 24.57c-2.444 0-5.097-1.012-5.097-6.493v-5.551c0-1.606-0.908-1.885-2.199-1.85v-1.361l5.69-0.943c1.187-0.175 1.745 0.349 1.745 1.396v7.471c0 2.444 1.012 4.189 2.897 4.189 1.92 0 2.897-1.745 2.897-4.189v-4.713c0-1.606-0.908-1.885-2.199-1.85v-1.361l5.655-0.943c1.222-0.175 1.78 0.349 1.78 1.396v11.031c0 1.152 0.454 1.92 1.466 1.501v0.768c-0.489 1.187-1.745 1.501-2.932 1.501-2.513 0-3.212-1.571-3.386-2.339-0.105-0.489-0.384-0.733-0.628-0.733s-0.419 0.209-0.593 0.454c-0.977 1.327-2.339 2.618-5.097 2.618z"></path>
<path d="M217.917 24.57c-4.364 0-8.692-2.513-8.692-7.994 0-5.725 4.678-8.273 9.007-8.273 3.7 0 6.703 1.85 6.703 4.922 0 3.142-3.037 3.316-6.109 3.561l-2.723 0.209c-0.593 0.035-0.908 0.314-0.908 1.117 0 2.583 2.793 3.735 5.097 3.735 1.222 0 2.897-0.349 4.154-1.78l1.047 0.943c-0.663 1.361-3.491 3.561-7.575 3.561zM214.95 14.132c0 1.012 0.244 1.536 1.152 1.501l1.257-0.14c2.409-0.244 2.897-0.873 2.897-2.234 0-1.676-0.698-3.351-2.513-3.351-2.269 0-2.793 2.548-2.793 4.224z"></path>
</symbol>
<symbol id="icon-Food-mobile-Boutique" viewBox="0 0 220 32">
<path d="M1.016 23.115c1.66-0.203 2.575-0.949 2.575-2.27v-13.79c0-1.321-0.915-2.101-2.575-2.27v-1.355h17.212c0.305 0 0.44 0.102 0.474 0.339 0.102 1.016 0.169 2.033 0.712 4.506h-0.847c-1.186-2.067-2.202-3.151-4.201-3.151h-2.88c-1.525 0-2.168 0.847-2.168 2.202v3.558c0 1.355 0.644 2.101 2.168 2.101h1.355c2.744 0 3.253-0.644 3.524-2.168h0.745v6.031h-0.745c-0.271-1.423-0.779-2.135-3.524-2.135h-1.355c-1.525 0-2.168 0.745-2.168 2.101v4.032c0 1.321 0.915 2.067 2.914 2.27v1.355h-11.215v-1.355zM27.966 24.674c-4.168 0-8.403-2.507-8.403-7.996 0-5.455 4.235-7.793 8.301-7.793 4.201 0 8.403 2.507 8.403 7.996 0 5.455-4.201 7.793-8.301 7.793zM24.984 15.187c0 4.201 1.389 7.928 3.558 7.928 1.321 0 2.304-1.321 2.304-4.811 0-4.168-1.321-7.895-3.558-7.895-1.355 0-2.304 1.355-2.304 4.777zM46.182 24.674c-4.168 0-8.403-2.507-8.403-7.996 0-5.455 4.235-7.793 8.301-7.793 4.201 0 8.403 2.507 8.403 7.996 0 5.455-4.201 7.793-8.301 7.793zM43.2 15.187c0 4.201 1.389 7.928 3.558 7.928 1.321 0 2.304-1.321 2.304-4.811 0-4.168-1.321-7.895-3.558-7.895-1.355 0-2.304 1.355-2.304 4.777zM62.466 24.674c-3.185 0-6.472-2.609-6.472-7.624 0-5.387 3.693-8.166 7.285-8.166 3.727 0 4.71 2.914 4.71-0.508v-2.033c0-1.592-0.881-1.864-2.135-1.762v-1.321l5.523-0.915c1.152-0.169 1.694 0.339 1.694 1.355v17.314c0 1.118 0.44 1.864 1.423 1.457v0.745c-0.474 1.152-1.694 1.457-2.744 1.457-1.152 0-2.609-0.373-3.016-1.389-0.271-0.644-0.576-0.983-1.084-0.983-0.678 0-2.033 2.372-5.184 2.372zM61.45 15.288c0 3.354 1.491 6.641 3.659 6.641 1.321 0 2.88-0.949 2.88-3.795v-1.592c0-4.405-2.067-6.133-3.761-6.133-1.728 0-2.778 2.135-2.778 4.879zM81.606 23.115c1.66-0.203 2.575-0.949 2.575-2.27v-13.756c0-1.355-0.915-2.135-2.575-2.304v-1.355h10.47c6.641 0 9.928 1.592 9.928 5.015 0 1.931-1.118 3.829-4.981 4.439 4.337 0.61 6.2 2.643 6.2 5.523 0 3.93-3.49 6.065-8.233 6.065-2.711 0-8.471-0.847-13.384 0v-1.355zM89.907 21.353c0 0.881 0.542 1.288 1.525 1.288h1.186c2.575 0 4.506-0.983 4.506-4.269 0-3.185-1.965-4.574-5.692-4.574-0.881 0-1.525 0.678-1.525 2.033v5.523zM89.907 10.138c0 1.355 0.644 2.033 2.168 2.033h0.881c2.338 0 2.948-1.83 2.948-3.388 0-2.372-1.288-3.693-3.49-3.693h-0.339c-1.525 0-2.168 0.712-2.168 2.067v2.982zM113.155 24.674c-4.168 0-8.403-2.507-8.403-7.996 0-5.455 4.235-7.793 8.301-7.793 4.201 0 8.403 2.507 8.403 7.996 0 5.455-4.201 7.793-8.301 7.793zM110.173 15.187c0 4.201 1.389 7.928 3.558 7.928 1.321 0 2.304-1.321 2.304-4.811 0-4.168-1.321-7.895-3.558-7.895-1.355 0-2.304 1.355-2.304 4.777zM128.821 24.674c-2.372 0-4.947-0.983-4.947-6.302v-5.387c0-1.559-0.881-1.83-2.135-1.796v-1.321l5.523-0.915c1.152-0.169 1.694 0.339 1.694 1.355v7.251c0 2.372 0.983 4.066 2.812 4.066 1.864 0 2.812-1.694 2.812-4.066v-4.574c0-1.559-0.881-1.83-2.135-1.796v-1.321l5.489-0.915c1.186-0.169 1.728 0.339 1.728 1.355v10.707c0 1.118 0.44 1.864 1.423 1.457v0.745c-0.474 1.152-1.694 1.457-2.846 1.457-2.44 0-3.117-1.525-3.287-2.27-0.102-0.474-0.373-0.712-0.61-0.712s-0.407 0.203-0.576 0.44c-0.949 1.288-2.27 2.541-4.947 2.541zM149.026 24.64c-3.117 0-5.015-1.728-5.015-5.015v-7.42c0-1.186-0.271-1.423-1.050-1.423h-1.525v-1.084c2.812-0.644 4.168-1.931 5.32-3.795 0.271-0.44 0.508-0.576 0.949-0.576h0.61c0.508 0 0.813 0.305 0.813 0.813l-0.034 2.101c0 0.745 0.373 0.949 2.101 0.949h2.203v1.796l-2.203-0.136c-1.728-0.102-2.101 0.203-2.101 1.423v7.183c0 1.864 0.203 3.117 1.864 3.117 0.44 0 1.118-0.068 1.762-0.542 0.441 0.542 0.61 1.016 0.169 1.423-0.779 0.678-2.168 1.186-3.863 1.186zM154.763 23.149c1.559-0.102 2.135-0.61 2.135-2.44v-7.759c0-1.592-0.881-1.864-2.101-1.762v-1.321l5.489-0.915c1.152-0.169 1.694 0.339 1.694 1.355v10.402c0 1.83 0.576 2.338 2.101 2.44v1.321h-9.318v-1.321zM156.084 4.683c0-1.626 1.355-2.88 2.948-2.88 1.559 0 2.88 1.254 2.88 2.88s-1.321 2.88-2.88 2.88c-1.592 0-2.948-1.254-2.948-2.88zM174.199 29.621c1.931-0.136 2.507-0.644 2.507-2.338v-3.625c0-0.61-0.305-0.813-0.61-0.813-0.169 0-0.339 0.068-0.474 0.203-0.678 0.678-2.135 1.626-4.269 1.626-3.49 0-6.709-2.575-6.709-7.556 0-5.421 3.761-8.233 7.657-8.233 3.388 0 4.811 2.067 6.065 2.067 1.186 0 1.66-2.033 2.609-2.033 0.61 0 0.813 0.339 0.813 0.813v17.551c0 1.694 0.576 2.202 2.101 2.338v1.288h-9.69v-1.288zM170.099 15.255c0 3.354 1.423 6.675 3.795 6.675 1.288 0 2.778-0.949 2.812-4.744-0.034-5.082-2.135-6.776-3.829-6.776-1.83 0-2.778 2.135-2.778 4.845zM190.468 24.674c-2.373 0-4.948-0.983-4.948-6.302v-5.387c0-1.559-0.881-1.83-2.135-1.796v-1.321l5.524-0.915c1.152-0.169 1.694 0.339 1.694 1.355v7.251c0 2.372 0.983 4.066 2.812 4.066 1.864 0 2.812-1.694 2.812-4.066v-4.574c0-1.559-0.881-1.83-2.135-1.796v-1.321l5.489-0.915c1.186-0.169 1.728 0.339 1.728 1.355v10.707c0 1.118 0.44 1.864 1.423 1.457v0.745c-0.474 1.152-1.694 1.457-2.846 1.457-2.44 0-3.117-1.525-3.287-2.27-0.102-0.474-0.373-0.712-0.61-0.712s-0.407 0.203-0.576 0.44c-0.949 1.288-2.27 2.541-4.947 2.541zM212.523 24.674c-4.235 0-8.437-2.44-8.437-7.759 0-5.557 4.54-8.030 8.742-8.030 3.592 0 6.505 1.796 6.505 4.777 0 3.049-2.948 3.219-5.929 3.456l-2.643 0.203c-0.576 0.034-0.881 0.305-0.881 1.084 0 2.507 2.711 3.625 4.947 3.625 1.186 0 2.812-0.339 4.032-1.728l1.016 0.915c-0.644 1.321-3.388 3.456-7.352 3.456zM209.643 14.543c0 0.983 0.237 1.491 1.118 1.457l1.22-0.136c2.338-0.237 2.812-0.847 2.812-2.168 0-1.626-0.678-3.253-2.44-3.253-2.202 0-2.711 2.473-2.711 4.1z"></path>
</symbol>

<symbol id="icon-shopping-cart" viewBox="0 0 32 32">
<path d="M4.801 1.6c-0.424 0-0.831 0.169-1.131 0.469s-0.469 0.707-0.469 1.131c0 0.424 0.169 0.831 0.469 1.131s0.707 0.469 1.131 0.469h1.952l0.488 1.955c0.005 0.022 0.010 0.045 0.016 0.067l2.173 8.688-1.429 1.427c-2.016 2.016-0.589 5.462 2.262 5.462h13.738c0.424 0 0.831-0.169 1.131-0.469s0.469-0.707 0.469-1.131c0-0.424-0.169-0.831-0.469-1.131s-0.707-0.469-1.131-0.469h-13.738l1.6-1.6h10.538c0.297-0 0.588-0.083 0.841-0.239s0.457-0.38 0.59-0.646l4.8-9.6c0.122-0.244 0.179-0.515 0.167-0.787s-0.094-0.537-0.237-0.769c-0.143-0.232-0.343-0.423-0.582-0.556s-0.506-0.203-0.779-0.203h-17.152l-0.496-1.989c-0.087-0.346-0.286-0.653-0.568-0.873s-0.628-0.339-0.984-0.339h-3.2zM25.601 26.4c0 0.637-0.253 1.247-0.703 1.697s-1.061 0.703-1.697 0.703c-0.637 0-1.247-0.253-1.697-0.703s-0.703-1.061-0.703-1.697c0-0.637 0.253-1.247 0.703-1.697s1.061-0.703 1.697-0.703c0.637 0 1.247 0.253 1.697 0.703s0.703 1.061 0.703 1.697zM10.4 28.8c0.637 0 1.247-0.253 1.697-0.703s0.703-1.061 0.703-1.697c0-0.637-0.253-1.247-0.703-1.697s-1.061-0.703-1.697-0.703c-0.636 0-1.247 0.253-1.697 0.703s-0.703 1.061-0.703 1.697c0 0.637 0.253 1.247 0.703 1.697s1.061 0.703 1.697 0.703z"></path>



<!--  -->


</defs>
</svg>

